<svg version="1.1" id="Layer_1" xmlns="http://www.w3.org/2000/svg" xmlns:xlink="http://www.w3.org/1999/xlink" x="0px" y="0px"
	 width="100%" viewBox="0 0 617 581" enable-background="new 0 0 617 581" xml:space="preserve">
<path fill="#282724" opacity="1.000000" stroke="none" 
	d="
M1.000000,581.000000 
	C1.000000,552.979126 1.000000,524.958191 1.360615,496.468292 
	C2.682806,496.004852 3.644382,496.010437 4.694767,496.476746 
	C4.821442,502.524506 4.859308,508.111572 4.916710,513.737427 
	C4.936246,513.776245 5.032960,513.913147 5.280606,514.174622 
	C5.691028,514.612610 5.853802,514.789124 6.331317,515.235718 
	C7.616816,515.667786 8.587464,515.970703 9.558343,515.971497 
	C42.627373,515.996887 75.696449,516.007080 108.765381,515.947937 
	C110.151611,515.945496 111.536613,515.258728 113.294807,514.717407 
	C118.789223,514.621399 123.911026,514.698730 129.169556,515.008667 
	C130.527008,515.066406 131.747711,514.891663 133.300293,514.597473 
	C134.089203,514.554443 134.546219,514.630859 135.039642,514.853027 
	C135.383514,514.901550 135.690979,514.804321 136.407043,514.566162 
	C137.675629,514.446228 138.535614,514.467224 139.691132,514.648071 
	C142.248795,514.381104 145.393051,516.807007 146.571289,512.344849 
	C146.609802,485.533844 146.632797,459.158722 146.621597,432.783600 
	C146.617233,422.502441 146.535873,412.221313 146.639343,401.564209 
	C146.848846,363.899384 146.920822,326.610504 146.921982,289.321655 
	C146.922028,287.888641 146.240463,286.455597 145.924530,284.566376 
	C145.972290,281.052490 145.972061,277.994781 146.184692,274.587921 
	C146.491959,272.587646 146.668167,270.936615 146.668839,269.285492 
	C146.690079,217.567322 146.711395,165.849152 146.691803,114.130989 
	C146.684814,95.677895 146.572372,77.224823 146.597916,58.326271 
	C146.687759,41.080250 146.687759,24.279696 146.687759,7.005442 
	C141.918869,7.005442 137.959259,7.005442 133.986801,6.622400 
	C133.649307,4.492906 133.324646,2.746453 133.000000,1.000000 
	C147.354233,1.000000 161.708450,1.000000 176.535858,1.381883 
	C177.333725,3.174048 177.658401,4.584330 177.891113,6.437500 
	C177.854279,9.582084 177.909393,12.283781 177.866241,15.444007 
	C177.837448,20.886889 177.906937,25.871243 177.863129,31.161762 
	C177.687592,31.675402 177.625336,31.882875 177.399384,32.292656 
	C177.347794,33.297653 177.459885,34.100338 177.643768,35.298019 
	C177.669800,36.491787 177.624054,37.290558 177.393021,38.414551 
	C177.336090,41.461498 177.464462,44.183235 177.662231,47.266514 
	C177.684753,48.114422 177.637878,48.600788 177.396271,49.439770 
	C177.117813,51.780197 176.961121,53.768005 176.961029,55.755817 
	C176.958847,104.822868 176.973251,153.889923 176.985229,203.430084 
	C176.988297,225.671936 176.968506,247.440750 177.032089,269.209320 
	C177.037704,271.132629 177.587692,273.054352 178.015625,275.128357 
	C178.146408,275.279938 178.176498,275.679169 178.128510,276.150757 
	C178.083664,279.445251 178.086777,282.268158 177.890076,285.415405 
	C177.164673,288.269623 176.173889,290.800812 176.181274,293.329163 
	C176.389725,364.756439 176.701111,436.183380 176.988373,507.610413 
	C177.020905,515.696716 177.166733,515.895813 185.492386,515.897278 
	C249.284195,515.908386 313.076019,515.912537 376.867798,515.866211 
	C378.993561,515.864624 381.141785,515.394958 383.213928,514.879639 
	C383.458008,514.818970 383.283142,513.073792 383.244415,511.637573 
	C383.249420,490.115448 383.312469,469.065247 383.702332,447.841888 
	C384.309296,446.923065 384.829468,446.178680 384.833405,445.431641 
	C384.889832,434.730316 384.920715,424.028168 384.814240,413.327637 
	C384.803131,412.213684 383.878082,411.108765 383.309113,409.565643 
	C383.280640,407.085175 383.320129,405.038757 383.688538,402.825409 
	C384.299744,401.911163 384.825836,401.164612 384.828400,400.416321 
	C384.883209,384.384918 384.909546,368.353180 384.821625,352.322144 
	C384.815521,351.207123 383.875702,350.097260 383.302277,348.522430 
	C383.283508,328.358459 383.332520,308.657074 383.643951,288.891541 
	C384.209412,288.214569 384.512421,287.601776 385.292664,286.985657 
	C390.217072,286.933929 394.664276,286.885498 399.568298,286.862732 
	C406.981262,287.244629 413.937378,287.600861 420.943054,288.426147 
	C420.987213,294.529297 421.039185,300.164124 420.965057,305.797272 
	C420.779877,319.866150 420.537506,333.934235 419.957336,348.000183 
	C413.318665,346.751678 411.240082,347.843048 409.380981,353.847412 
	C408.857452,355.538361 409.015198,357.468445 409.014557,359.288910 
	C408.997345,407.249146 408.935303,455.209534 409.045441,503.169525 
	C409.073181,515.257751 406.532990,514.063232 420.621033,514.128662 
	C422.429230,514.495300 423.899933,514.766602 425.370728,514.767334 
	C485.678619,514.797607 545.986511,514.803467 606.294373,514.812439 
	C607.751526,514.812622 609.208679,514.812439 611.384460,514.812439 
	C611.384460,509.234406 611.384460,504.122833 611.731445,498.999084 
	C614.052246,498.324585 616.026123,497.662292 618.000000,497.000000 
	C618.000000,499.041656 618.000000,501.083344 617.726501,503.617126 
	C617.164978,504.420929 616.876953,504.732605 616.588928,505.044312 
	C617.059265,505.362885 617.529663,505.681427 618.000000,506.000000 
	C618.000000,530.687561 618.000000,555.375122 617.531372,580.532471 
	C586.053162,581.003601 555.043579,580.989319 524.034119,581.048340 
	C522.355469,581.051575 520.678040,581.668701 519.000000,582.000000 
	C514.643066,582.000000 510.286194,582.000000 505.231110,581.638428 
	C493.068512,581.184570 481.604065,581.009338 470.139679,581.013611 
	C401.783112,581.039185 333.426514,581.106201 264.600769,581.086365 
	C237.765244,581.059692 211.398880,581.105957 184.564789,581.096680 
	C123.064690,581.027344 62.032345,581.013672 1.000000,581.000000 
z"/>
<path fill="#DB1115" opacity="1.000000" stroke="none" 
	d="
M457.000000,0.999997 
	C472.687561,1.000000 488.375122,1.000000 504.807922,1.238670 
	C512.260620,3.887372 518.956543,6.330785 525.694275,8.652802 
	C526.327759,8.871099 527.224731,8.324524 528.128540,8.452646 
	C529.911682,9.544554 531.535583,10.390682 533.224121,11.078196 
	C560.433960,22.157021 581.539856,40.593933 597.396362,65.058563 
	C601.962341,72.103302 605.286377,79.952988 609.126953,87.856720 
	C610.206970,91.237671 611.339966,94.195518 612.586853,97.165146 
	C612.700745,97.176941 612.928589,97.154984 612.905151,97.461151 
	C613.128235,98.319885 613.374817,98.872467 613.592896,99.787163 
	C613.691345,101.105370 613.818420,102.061455 613.755554,103.173080 
	C613.891113,103.918335 614.216675,104.508049 614.637207,105.452835 
	C614.858521,106.531624 614.984802,107.255333 614.868286,108.214371 
	C615.416992,117.088142 616.465759,125.713089 616.920044,134.369217 
	C617.296936,141.551117 616.973389,148.769775 616.963135,156.360641 
	C616.880249,157.520447 616.794373,158.291748 616.478638,159.315262 
	C615.950012,161.167435 615.651306,162.767365 615.356934,164.641541 
	C615.303589,165.276443 615.245972,165.637100 614.907715,166.236237 
	C614.080078,169.636642 613.533081,172.798599 612.959839,176.298492 
	C612.814819,177.071838 612.695923,177.507248 612.271240,178.083527 
	C611.088989,181.732925 610.212463,185.241486 609.357544,188.811981 
	C609.379089,188.873917 609.286072,188.966385 609.002808,189.176910 
	C608.624207,190.042068 608.528809,190.696701 608.363892,191.706635 
	C588.954041,235.168579 556.917419,263.378754 510.500122,275.078552 
	C509.280945,275.169647 508.405090,275.301025 507.022583,275.343903 
	C503.799805,275.482300 501.083679,275.709167 498.054352,275.800659 
	C489.791687,276.012543 481.842255,276.359802 473.351318,276.695557 
	C469.925995,276.681702 467.042175,276.679413 464.000793,276.525635 
	C462.749481,276.450592 461.655792,276.526978 460.185699,276.595520 
	C459.321869,276.700531 458.834473,276.813385 458.178864,276.670288 
	C456.395416,276.270569 454.780121,276.126801 452.993652,275.600830 
	C446.335419,273.229675 439.678589,271.666840 433.396515,269.163574 
	C420.083435,263.858612 407.442139,257.321167 396.347748,247.975433 
	C368.690521,224.677414 350.624542,195.880173 345.445953,159.718246 
	C338.621643,112.064735 353.087769,71.528008 387.751556,38.521156 
	C396.792542,29.912325 407.909302,23.483496 418.430786,16.015738 
	C424.527222,13.361225 430.265503,10.744398 436.381531,8.068770 
	C438.744843,7.271070 440.715210,6.487638 442.719116,5.802172 
	C447.470978,4.176733 452.238678,2.597752 457.000000,0.999997 
z"/>
<path fill="#302F2E" opacity="1.000000" stroke="none" 
	d="
M615.188354,165.997772 
	C615.245972,165.637100 615.303589,165.276443 615.640076,164.426849 
	C616.182129,162.312973 616.445312,160.688004 616.708496,159.063034 
	C616.794373,158.291748 616.880249,157.520447 617.223572,156.349991 
	C617.654053,155.967224 617.827026,155.983612 618.000000,156.000000 
	C618.000000,269.354218 618.000000,382.708466 618.000000,496.531342 
	C616.026123,497.662292 614.052246,498.324585 611.629883,498.539490 
	C611.181458,427.760925 611.181458,357.429718 611.181458,286.755341 
	C608.662354,286.755341 607.015015,286.755249 605.367676,286.755371 
	C581.559631,286.757233 557.751587,286.780914 533.943604,286.747498 
	C526.963074,286.737701 519.982788,286.565765 513.007141,286.107391 
	C514.526672,284.447144 516.041443,283.147644 517.962646,281.499481 
	C517.811646,280.521912 517.509277,278.565216 517.638794,276.472534 
	C522.378174,276.295471 526.685730,276.254486 531.010803,276.587311 
	C532.306396,278.280457 533.453186,280.549896 534.885986,280.747681 
	C539.959473,281.447998 545.128784,281.592072 550.265320,281.653656 
	C554.498352,281.704437 558.779114,281.652405 562.961426,281.080536 
	C568.333435,280.346039 573.643921,279.116608 578.943298,277.932098 
	C580.046814,277.685394 580.986023,276.703156 582.461426,275.966156 
	C592.191833,275.872437 601.461670,275.872437 610.839783,275.872437 
	C610.839783,246.194580 610.839783,217.247879 610.891357,187.882477 
	C611.487549,184.290070 612.032288,181.116364 612.577026,177.942657 
	C612.695923,177.507248 612.814819,177.071838 613.196655,176.034332 
	C614.035767,172.287399 614.612061,169.142578 615.188354,165.997772 
z"/>
<path fill="#505658" opacity="1.000000" stroke="none" 
	d="
M145.876511,285.022583 
	C146.240463,286.455597 146.922028,287.888641 146.921982,289.321655 
	C146.920822,326.610504 146.848846,363.899384 146.497284,401.122925 
	C146.151764,365.256134 146.101028,329.454651 146.041687,293.653168 
	C146.030746,287.056427 146.014725,287.030609 139.341736,287.020752 
	C98.708450,286.960724 58.075134,286.924072 17.441872,286.855835 
	C4.246669,286.833710 6.040972,285.521393 5.796460,298.663086 
	C5.658127,306.098053 5.175112,313.526550 4.613954,320.622620 
	C4.248671,316.308319 4.377672,312.294647 3.855545,308.367584 
	C3.648804,306.812653 1.994958,305.450134 0.999997,304.000000 
	C1.000000,203.000000 1.000000,102.000000 1.003316,1.000000 
	C2.337779,1.000000 3.668927,1.000000 5.479205,1.429988 
	C5.965278,3.864901 5.972222,5.869825 5.820899,8.331215 
	C5.580853,9.946283 5.425985,11.104997 5.427712,12.263476 
	C5.555789,98.148071 5.690127,184.032669 5.884700,269.917114 
	C5.888188,271.456818 6.624636,272.994843 6.936400,274.859558 
	C4.901930,284.254181 5.837993,285.386963 14.286078,284.207397 
	C14.942515,284.115723 15.613691,284.064453 16.275274,284.084595 
	C25.840685,284.375549 35.404823,284.909851 44.970825,284.943542 
	C78.605728,285.062134 112.241234,285.009949 145.876511,285.022583 
z"/>
<path fill="#3A3A31" opacity="1.000000" stroke="none" 
	d="
M177.983078,5.994613 
	C177.658401,4.584330 177.333725,3.174048 177.004517,1.381883 
	C242.687561,1.000000 308.375122,1.000000 374.619049,1.342670 
	C378.117432,3.446103 381.059479,5.206867 383.541443,7.065357 
	C372.067078,7.225068 361.052765,7.287051 349.577087,7.247211 
	C328.698242,7.021436 308.280792,6.879028 287.863129,6.781460 
	C277.919922,6.733945 267.976288,6.770154 257.581482,6.625339 
	C245.430145,6.466780 233.730148,6.451345 221.570190,6.334525 
	C206.734512,6.153631 192.358795,6.074122 177.983078,5.994613 
z"/>
<path fill="#3E3C3A" opacity="1.000000" stroke="none" 
	d="
M527.999390,8.133066 
	C527.224731,8.324524 526.327759,8.871099 525.694275,8.652802 
	C518.956543,6.330785 512.260620,3.887372 505.276581,1.238670 
	C537.354248,1.000000 569.708435,1.000000 602.522827,1.373243 
	C602.664307,3.658302 602.345642,5.570119 601.562500,7.558461 
	C576.731873,7.801012 552.365601,7.967037 527.999390,8.133066 
z"/>
<path fill="#303230" opacity="1.000000" stroke="none" 
	d="
M4.605958,496.015991 
	C3.644382,496.010437 2.682806,496.004852 1.360615,495.999634 
	C1.000000,445.979095 1.000000,395.958221 1.358260,345.469055 
	C2.671819,345.007141 3.627118,345.013489 4.681942,345.478088 
	C4.893692,383.174866 5.058306,420.413330 5.089321,457.651917 
	C5.099972,470.439789 4.776686,483.227966 4.605958,496.015991 
z"/>
<path fill="#2F302C" opacity="1.000000" stroke="none" 
	d="
M132.531342,1.000000 
	C133.324646,2.746453 133.649307,4.492906 133.528839,6.730602 
	C126.281227,7.279360 119.478806,7.371267 112.676208,7.388155 
	C89.120247,7.446635 65.564224,7.479017 42.031326,7.182990 
	C43.702957,4.896432 45.351479,2.948216 47.000000,1.000000 
	C75.354225,1.000000 103.708458,1.000000 132.531342,1.000000 
z"/>
<path fill="#292928" opacity="1.000000" stroke="none" 
	d="
M602.026978,7.481935 
	C602.345642,5.570119 602.664307,3.658302 602.991455,1.373243 
	C607.971008,1.000000 612.942078,1.000000 618.000000,1.000000 
	C618.000000,21.020821 618.000000,41.041752 617.636169,61.529083 
	C615.355408,61.331718 613.438477,60.667950 611.431030,59.543591 
	C611.340454,42.001114 611.340454,24.919230 611.340454,7.481934 
	C607.672546,7.481934 604.849731,7.481934 602.026978,7.481935 
z"/>
<path fill="#302C2A" opacity="1.000000" stroke="none" 
	d="
M384.001495,6.967631 
	C381.059479,5.206867 378.117432,3.446103 375.087708,1.342670 
	C402.020905,1.000000 429.041779,1.000000 456.531342,0.999997 
	C452.238678,2.597752 447.470978,4.176733 442.719116,5.802172 
	C440.715210,6.487638 438.744843,7.271070 436.121948,8.022646 
	C435.313293,7.997674 435.141968,7.960027 434.809814,7.632236 
	C433.779663,7.325665 432.910309,7.309236 431.574066,7.226831 
	C415.405273,7.096448 399.703400,7.032041 384.001495,6.967631 
z"/>
<path fill="#212726" opacity="1.000000" stroke="none" 
	d="
M611.521545,60.004177 
	C613.438477,60.667950 615.355408,61.331718 617.636169,61.997742 
	C618.000000,78.354225 618.000000,94.708458 617.706604,111.382187 
	C616.645813,110.460808 615.878418,109.219925 615.111023,107.979050 
	C614.984802,107.255333 614.858521,106.531624 614.722107,105.165840 
	C614.456543,104.021690 614.201050,103.519615 613.945557,103.017532 
	C613.818420,102.061455 613.691345,101.105370 613.654297,99.465851 
	C613.472351,98.239944 613.200500,97.697464 612.928589,97.154984 
	C612.928589,97.154984 612.700745,97.176941 612.683716,96.819908 
	C612.684998,95.985535 612.703369,95.508202 612.762207,94.773117 
	C612.554932,94.095284 612.307190,93.675194 611.951660,92.958771 
	C611.805908,92.455666 611.767944,92.248894 611.718323,91.877968 
	C611.637451,91.494301 611.499512,91.334023 611.226318,90.821686 
	C611.163269,89.854851 611.166687,89.299301 611.179688,88.714828 
	C611.189331,88.685905 611.158020,88.633553 611.178711,88.125511 
	C611.306763,78.413040 611.414124,69.208603 611.521545,60.004177 
z"/>
<path fill="#363634" opacity="1.000000" stroke="none" 
	d="
M46.531342,1.000000 
	C45.351479,2.948216 43.702957,4.896432 41.573437,7.291493 
	C29.388014,7.783808 17.683590,7.829279 5.979167,7.874750 
	C5.972222,5.869825 5.965278,3.864901 5.979167,1.429988 
	C19.354227,1.000000 32.708454,1.000000 46.531342,1.000000 
z"/>
<path fill="#8E8D8B" opacity="1.000000" stroke="none" 
	d="
M265.069946,581.159302 
	C333.426514,581.106201 401.783112,581.039185 470.139679,581.013611 
	C481.604065,581.009338 493.068512,581.184570 504.766479,581.638428 
	C425.312439,582.000000 345.624878,582.000000 265.481873,581.789429 
	C265.026428,581.578918 265.069946,581.159302 265.069946,581.159302 
z"/>
<path fill="#61605E" opacity="1.000000" stroke="none" 
	d="
M1.000000,581.500000 
	C62.032345,581.013672 123.064690,581.027344 184.554657,581.308228 
	C185.012268,581.575439 185.000000,582.000000 185.000000,582.000000 
	C123.666664,582.000000 62.333332,582.000000 1.000000,581.500000 
z"/>
<path fill="#46443B" opacity="1.000000" stroke="none" 
	d="
M4.582417,345.019836 
	C3.627118,345.013489 2.671819,345.007141 1.358260,345.000397 
	C1.000000,331.645782 1.000000,318.291534 0.999997,304.468658 
	C1.994958,305.450134 3.648804,306.812653 3.855545,308.367584 
	C4.377672,312.294647 4.248671,316.308319 4.681113,321.091919 
	C4.848583,329.604309 4.715499,337.312073 4.582417,345.019836 
z"/>
<path fill="#AFAEAD" opacity="1.000000" stroke="none" 
	d="
M519.468628,582.000000 
	C520.678040,581.668701 522.355469,581.051575 524.034119,581.048340 
	C555.043579,580.989319 586.053162,581.003601 617.531372,581.001160 
	C616.674011,581.333313 615.348450,581.955383 614.021912,581.957703 
	C582.660400,582.012207 551.298889,582.000000 519.468628,582.000000 
z"/>
<path fill="#6D6C6A" opacity="1.000000" stroke="none" 
	d="
M185.468658,582.000000 
	C185.000000,582.000000 185.012268,581.575439 185.022400,581.363831 
	C211.398880,581.105957 237.765244,581.059692 264.600769,581.086365 
	C265.069946,581.159302 265.026428,581.578918 265.013214,581.789429 
	C238.645767,582.000000 212.291550,582.000000 185.468658,582.000000 
z"/>
<path fill="#AB2427" opacity="1.000000" stroke="none" 
	d="
M614.868286,108.214371 
	C615.878418,109.219925 616.645813,110.460808 617.706604,111.850845 
	C618.000000,126.354225 618.000000,140.708450 618.000000,155.531342 
	C617.827026,155.983612 617.654053,155.967224 617.220581,155.961487 
	C616.973389,148.769775 617.296936,141.551117 616.920044,134.369217 
	C616.465759,125.713089 615.416992,117.088142 614.868286,108.214371 
z"/>
<path fill="#302F2E" opacity="1.000000" stroke="none" 
	d="
M618.000000,505.666687 
	C617.529663,505.681427 617.059265,505.362885 616.588928,505.044312 
	C616.876953,504.732605 617.164978,504.420929 617.726501,504.054626 
	C618.000000,504.444458 618.000000,504.888885 618.000000,505.666687 
z"/>
<path fill="#1883E3" opacity="1.000000" stroke="none" 
	d="
M383.381531,288.955688 
	C383.332520,308.657074 383.283508,328.358459 383.168060,348.971680 
	C383.187622,367.586456 383.273621,385.289368 383.359619,402.992310 
	C383.320129,405.038757 383.280640,407.085175 383.176880,410.013367 
	C383.200256,423.268433 383.287872,435.641754 383.375488,448.015076 
	C383.312469,469.065247 383.249420,490.115448 382.923523,511.883850 
	C380.457001,513.101257 378.253723,514.034241 376.049622,514.036194 
	C313.572632,514.090515 251.095596,514.051758 188.618561,514.023315 
	C186.620041,514.022400 184.620667,513.995300 182.623245,513.932007 
	C179.789841,513.842346 178.492554,512.454529 178.477768,509.515778 
	C178.450134,504.024048 178.030304,498.533234 178.040771,493.042542 
	C178.167984,426.240631 178.377884,359.438873 178.429779,292.636932 
	C178.433197,288.241486 179.871399,286.807922 184.209427,286.911957 
	C198.693497,287.259216 213.185150,287.449768 227.673248,287.416260 
	C238.479431,287.391266 249.284592,286.926758 260.396484,286.695068 
	C260.904602,286.692780 261.106506,286.653412 261.408875,286.649231 
	C261.509369,286.684387 261.710297,286.613922 262.138367,286.669006 
	C267.732483,286.739685 272.898529,286.755219 278.406189,286.981567 
	C280.568970,287.317322 282.389923,287.547455 284.211426,287.551544 
	C314.847168,287.620300 345.483032,287.633057 376.118469,287.761230 
	C378.541107,287.771362 380.960571,288.539734 383.381531,288.955688 
z"/>
<path fill="#F3F3F3" opacity="1.000000" stroke="none" 
	d="
M513.002380,286.468170 
	C519.982788,286.565765 526.963074,286.737701 533.943604,286.747498 
	C557.751587,286.780914 581.559631,286.757233 605.367676,286.755371 
	C607.015015,286.755249 608.662354,286.755341 611.181458,286.755341 
	C611.181458,357.429718 611.181458,427.760925 611.282959,498.551697 
	C611.384460,504.122833 611.384460,509.234406 611.384460,514.812439 
	C609.208679,514.812439 607.751526,514.812622 606.294373,514.812439 
	C545.986511,514.803467 485.678619,514.797607 425.370728,514.767334 
	C423.899933,514.766602 422.429230,514.495300 420.708588,513.673950 
	C420.484680,466.461487 420.522217,419.925262 420.526276,373.389069 
	C420.527039,364.926941 420.390991,356.464783 420.318115,348.002655 
	C420.537506,333.934235 420.779877,319.866150 420.965057,305.797272 
	C421.039185,300.164124 420.987213,294.529297 421.122467,288.232910 
	C421.485138,287.306427 421.717957,287.042206 422.416504,286.862244 
	C437.989685,286.905487 453.097290,286.894958 468.204529,286.814972 
	C483.137329,286.735901 498.069763,286.586639 513.002380,286.468170 
z"/>
<path fill="#1882E3" opacity="1.000000" stroke="none" 
	d="
M4.681942,345.478088 
	C4.715499,337.312073 4.848583,329.604309 4.914505,321.427246 
	C5.175112,313.526550 5.658127,306.098053 5.796460,298.663086 
	C6.040972,285.521393 4.246669,286.833710 17.441872,286.855835 
	C58.075134,286.924072 98.708450,286.960724 139.341736,287.020752 
	C146.014725,287.030609 146.030746,287.056427 146.041687,293.653168 
	C146.101028,329.454651 146.151764,365.256134 146.347534,401.498901 
	C146.535873,412.221313 146.617233,422.502441 146.621597,432.783600 
	C146.632797,459.158722 146.609802,485.533844 146.231766,512.469055 
	C143.707230,513.515503 141.551407,514.001831 139.395584,514.488159 
	C138.535614,514.467224 137.675629,514.446228 136.158356,514.465332 
	C135.335098,514.572754 135.169159,514.640015 135.003235,514.707275 
	C134.546219,514.630859 134.089203,514.554443 132.926941,514.423645 
	C131.158737,514.504944 130.095779,514.640564 129.032822,514.776123 
	C123.911026,514.698730 118.789223,514.621399 112.843735,514.612061 
	C76.685555,514.775208 41.351067,514.870422 6.016576,514.965576 
	C5.853802,514.789124 5.691028,514.612610 5.409129,514.110474 
	C5.290005,513.784912 5.135910,513.554260 5.135910,513.554260 
	C5.135910,513.554260 4.897174,513.698608 4.897174,513.698608 
	C4.859308,508.111572 4.821442,502.524506 4.694767,496.476746 
	C4.776686,483.227966 5.099972,470.439789 5.089321,457.651917 
	C5.058306,420.413330 4.893692,383.174866 4.681942,345.478088 
z"/>
<path fill="#D1D0CF" opacity="1.000000" stroke="none" 
	d="
M418.072693,16.053432 
	C407.909302,23.483496 396.792542,29.912325 387.751556,38.521156 
	C353.087769,71.528008 338.621643,112.064735 345.445953,159.718246 
	C350.624542,195.880173 368.690521,224.677414 396.347748,247.975433 
	C407.442139,257.321167 420.083435,263.858612 433.396515,269.163574 
	C439.678589,271.666840 446.335419,273.229675 452.640808,275.690704 
	C451.521454,276.333313 450.583710,276.503845 449.242493,276.609039 
	C447.207825,276.616272 445.576599,276.688873 443.502441,276.607422 
	C435.752686,276.376709 428.445892,276.299988 420.747650,276.072510 
	C403.242676,275.931580 386.129181,275.941406 368.551819,275.870575 
	C335.324280,275.760345 302.560394,275.791809 269.796997,275.676483 
	C252.509293,275.615631 235.222504,275.298798 218.096130,274.793701 
	C220.487747,271.320984 222.718552,268.152191 224.988159,264.761292 
	C225.026978,264.539154 225.074921,264.090759 225.411133,264.018951 
	C227.492065,261.632721 229.236801,259.318268 231.253815,256.847504 
	C232.039566,255.819504 232.553055,254.947861 233.399658,254.009033 
	C235.468704,251.954636 237.204636,249.967407 238.978714,247.758606 
	C239.016846,247.537033 239.066559,247.090118 239.399811,247.021759 
	C241.146408,245.299057 242.559738,243.644714 244.109985,241.755829 
	C244.532059,241.059280 244.817245,240.597290 245.431335,240.053314 
	C247.490280,237.973724 249.220306,235.976120 250.985214,233.756165 
	C251.020096,233.533798 251.059082,233.085327 251.384003,233.012573 
	C252.465973,231.957321 253.223022,230.974823 254.142838,229.711853 
	C255.530624,227.941238 256.755646,226.451126 258.282959,224.822678 
	C260.047089,222.785294 261.508942,220.886261 263.242981,218.833954 
	C264.033112,217.817810 264.550995,216.954926 265.403381,216.019165 
	C267.855347,213.334763 269.972839,210.723206 272.059937,208.069534 
	C272.029510,208.027420 272.112549,208.089874 272.433960,208.021027 
	C273.493011,206.964203 274.230713,205.976257 275.219360,204.792084 
	C276.661835,203.085724 277.853271,201.575592 279.381409,199.998474 
	C284.135895,194.617996 288.553680,189.304474 293.178741,183.861374 
	C293.644379,183.523056 293.843994,183.268250 294.285950,182.822418 
	C298.779816,178.023544 303.043427,173.430771 307.132538,168.687515 
	C308.923248,166.610336 310.357544,164.225876 312.092468,161.746063 
	C312.514404,161.045227 312.797577,160.579300 313.414612,160.037430 
	C316.582397,156.773651 319.709717,153.790878 322.137054,150.318741 
	C323.526337,148.331512 324.267609,145.351288 320.047791,144.963394 
	C320.045258,144.995819 320.067841,144.929779 320.005463,144.594025 
	C316.287292,141.194199 312.631531,138.130096 308.752441,135.027435 
	C308.529144,134.988892 308.078674,134.938797 307.983276,134.617126 
	C304.592743,131.865906 301.297577,129.436371 297.748352,126.852272 
	C296.701904,126.102882 295.909546,125.508049 295.038147,124.585678 
	C293.635529,123.184181 292.311951,122.110214 290.713379,120.967545 
	C289.978607,120.586769 289.518829,120.274719 288.985901,119.658707 
	C288.268890,118.920502 287.625031,118.486252 286.744629,117.912750 
	C286.037445,117.492073 285.566742,117.210640 285.026001,116.594116 
	C281.630951,113.524109 278.306000,110.789177 274.705627,107.982895 
	C273.969452,107.596146 273.508667,107.280754 272.978455,106.655357 
	C271.934113,105.578560 270.959229,104.811768 269.745972,103.906303 
	C269.032166,103.489464 268.556671,103.211296 268.009521,102.599167 
	C262.958252,98.179695 257.978638,94.094200 252.814606,89.788811 
	C252.102097,89.366188 251.574005,89.163445 250.971802,88.658485 
	C250.261246,87.915512 249.624802,87.474747 248.808548,86.814758 
	C248.116348,86.374443 247.603958,86.153366 247.017181,85.601257 
	C245.284622,83.874863 243.626434,82.479492 241.746307,81.043106 
	C241.524368,81.002098 241.076324,80.947052 241.005096,80.616333 
	C239.615433,79.209335 238.297012,78.133049 236.660980,76.947449 
	C233.593994,74.866035 230.844620,72.893944 228.025055,70.587677 
	C224.631958,67.518333 221.309036,64.783165 217.749191,61.908680 
	C217.040787,61.487640 216.569305,61.205910 216.025208,60.589096 
	C211.298752,56.506954 206.644943,52.759895 201.995575,49.006569 
	C202.000000,49.000305 201.989487,49.009422 201.836517,48.712975 
	C196.785049,44.624226 191.886581,40.831921 186.771606,37.003044 
	C186.555115,36.966473 186.120209,36.905781 186.047470,36.566589 
	C183.308640,34.436794 180.642532,32.646191 177.976410,30.855591 
	C177.906937,25.871243 177.837448,20.886889 178.337280,15.450031 
	C192.615768,14.689350 206.324936,14.381175 220.411911,14.235050 
	C222.421112,14.593183 224.051697,14.950912 225.684052,14.959274 
	C236.789383,15.016169 247.895111,14.999469 259.466187,15.014704 
	C288.287811,15.016005 316.643890,15.009129 345.323364,15.262389 
	C354.920410,15.351017 364.193573,15.090508 373.468018,15.029249 
	C386.761902,14.941439 400.056946,14.963847 413.350891,15.041312 
	C414.926758,15.050495 416.498840,15.700489 418.072693,16.053432 
z"/>
<path fill="#D1D1D0" opacity="1.000000" stroke="none" 
	d="
M5.820899,8.331215 
	C17.683590,7.829279 29.388014,7.783808 41.550331,7.629835 
	C65.564224,7.479017 89.120247,7.446635 112.676208,7.388155 
	C119.478806,7.371267 126.281227,7.279360 133.541687,7.113644 
	C137.959259,7.005442 141.918869,7.005442 146.687759,7.005442 
	C146.687759,24.279696 146.687759,41.080250 146.266556,58.399193 
	C144.173019,60.211891 142.164154,61.237503 140.882050,62.843365 
	C131.370895,74.756241 122.130898,86.886696 112.558792,98.749557 
	C101.519264,112.431023 90.127075,125.827713 79.069878,139.495178 
	C66.029671,155.613785 53.254459,171.946991 40.183945,188.040634 
	C38.055527,190.661346 38.203472,192.205215 40.707394,194.105362 
	C44.537640,197.011993 48.301796,200.007080 52.057549,203.010223 
	C64.470917,212.936066 76.934883,222.800247 89.251801,232.844604 
	C100.817825,242.276596 112.349846,251.759308 123.634224,261.523224 
	C128.162445,265.441284 131.989655,270.169495 135.660782,274.622559 
	C119.723938,274.696381 104.262238,274.678772 88.800537,274.656433 
	C61.540051,274.617035 34.279564,274.574738 7.019080,274.533691 
	C6.624636,272.994843 5.888188,271.456818 5.884700,269.917114 
	C5.690127,184.032669 5.555789,98.148071 5.427712,12.263476 
	C5.425985,11.104997 5.580853,9.946283 5.820899,8.331215 
z"/>
<path fill="#F1EA88" opacity="1.000000" stroke="none" 
	d="
M136.135925,274.528992 
	C131.989655,270.169495 128.162445,265.441284 123.634224,261.523224 
	C112.349846,251.759308 100.817825,242.276596 89.251801,232.844604 
	C76.934883,222.800247 64.470917,212.936066 52.057549,203.010223 
	C48.301796,200.007080 44.537640,197.011993 40.707394,194.105362 
	C38.203472,192.205215 38.055527,190.661346 40.183945,188.040634 
	C53.254459,171.946991 66.029671,155.613785 79.069878,139.495178 
	C90.127075,125.827713 101.519264,112.431023 112.558792,98.749557 
	C122.130898,86.886696 131.370895,74.756241 140.882050,62.843365 
	C142.164154,61.237503 144.173019,60.211891 146.176712,58.844666 
	C146.572372,77.224823 146.684814,95.677895 146.691803,114.130989 
	C146.711395,165.849152 146.690079,217.567322 146.668839,269.285492 
	C146.668167,270.936615 146.491959,272.587646 145.736542,274.529602 
	C142.095657,274.723328 139.115784,274.626160 136.135925,274.528992 
z"/>
<path fill="#463B2D" opacity="1.000000" stroke="none" 
	d="
M217.935303,275.097534 
	C235.222504,275.298798 252.509293,275.615631 269.796997,275.676483 
	C302.560394,275.791809 335.324280,275.760345 368.568298,276.213440 
	C370.449982,280.976349 372.668518,276.735168 374.497650,277.125519 
	C381.192444,278.554352 387.916901,279.856171 394.656708,281.057037 
	C398.033630,281.658752 399.540680,283.434265 399.111450,286.837067 
	C394.664276,286.885498 390.217072,286.933929 384.993622,286.908386 
	C384.121765,285.172333 384.026215,283.510254 383.930359,281.848206 
	C383.792664,281.760101 383.643066,281.582275 383.519867,281.598969 
	C382.892456,281.684021 382.237305,281.728729 381.654205,281.951080 
	C374.943359,284.510406 368.271210,286.287842 360.820831,286.166565 
	C335.181427,285.749298 309.531067,285.985352 283.885010,286.032745 
	C281.944427,286.036346 280.004730,286.513672 278.064606,286.770752 
	C272.898529,286.755219 267.732483,286.739685 262.160889,286.462372 
	C261.606384,286.338440 261.457397,286.476257 261.308380,286.614075 
	C261.106506,286.653412 260.904602,286.692780 260.152100,286.317505 
	C258.174896,285.615723 256.748688,285.080261 255.321732,285.078369 
	C229.577835,285.044250 203.833862,285.074524 178.089905,285.091003 
	C178.086777,282.268158 178.083664,279.445251 178.572891,276.149384 
	C182.032715,275.555084 185.000183,275.433807 188.336609,275.432129 
	C189.466309,275.466003 190.227036,275.380249 191.438126,275.430420 
	C197.593002,275.452698 203.297501,275.339111 209.327621,275.346008 
	C210.790085,275.383667 211.926941,275.300873 213.460693,275.335449 
	C215.216827,275.334412 216.576065,275.215973 217.935303,275.097534 
z"/>
<path fill="#21201C" opacity="1.000000" stroke="none" 
	d="
M419.957336,348.000183 
	C420.390991,356.464783 420.527039,364.926941 420.526276,373.389069 
	C420.522217,419.925262 420.484680,466.461487 420.371124,513.452393 
	C406.532990,514.063232 409.073181,515.257751 409.045441,503.169525 
	C408.935303,455.209534 408.997345,407.249146 409.014557,359.288910 
	C409.015198,357.468445 408.857452,355.538361 409.380981,353.847412 
	C411.240082,347.843048 413.318665,346.751678 419.957336,348.000183 
z"/>
<path fill="#574131" opacity="1.000000" stroke="none" 
	d="
M135.660782,274.622559 
	C139.115784,274.626160 142.095657,274.723328 145.523682,274.878784 
	C145.972061,277.994781 145.972290,281.052490 145.924530,284.566376 
	C112.241234,285.009949 78.605728,285.062134 44.970825,284.943542 
	C35.404823,284.909851 25.840685,284.375549 16.275274,284.084595 
	C15.613691,284.064453 14.942515,284.115723 14.286078,284.207397 
	C5.837993,285.386963 4.901930,284.254181 6.936399,274.859558 
	C34.279564,274.574738 61.540051,274.617035 88.800537,274.656433 
	C104.262238,274.678772 119.723938,274.696381 135.660782,274.622559 
z"/>
<path fill="#3D4952" opacity="1.000000" stroke="none" 
	d="
M177.890076,285.415375 
	C203.833862,285.074524 229.577835,285.044250 255.321732,285.078369 
	C256.748688,285.080261 258.174896,285.615723 259.845825,286.280396 
	C249.284592,286.926758 238.479431,287.391266 227.673248,287.416260 
	C213.185150,287.449768 198.693497,287.259216 184.209427,286.911957 
	C179.871399,286.807922 178.433197,288.241486 178.429779,292.636932 
	C178.377884,359.438873 178.167984,426.240631 178.040771,493.042542 
	C178.030304,498.533234 178.450134,504.024048 178.477768,509.515778 
	C178.492554,512.454529 179.789841,513.842346 182.623245,513.932007 
	C184.620667,513.995300 186.620041,514.022400 188.618561,514.023315 
	C251.095596,514.051758 313.572632,514.090515 376.049622,514.036194 
	C378.253723,514.034241 380.457001,513.101257 382.981567,512.355835 
	C383.283142,513.073792 383.458008,514.818970 383.213928,514.879639 
	C381.141785,515.394958 378.993561,515.864624 376.867798,515.866211 
	C313.076019,515.912537 249.284195,515.908386 185.492386,515.897278 
	C177.166733,515.895813 177.020905,515.696716 176.988373,507.610413 
	C176.701111,436.183380 176.389725,364.756439 176.181274,293.329163 
	C176.173889,290.800812 177.164673,288.269623 177.890076,285.415375 
z"/>
<path fill="#A7A7A6" opacity="1.000000" stroke="none" 
	d="
M220.034103,14.073000 
	C206.324936,14.381175 192.615768,14.689350 178.435562,14.991501 
	C177.909393,12.283781 177.854279,9.582084 177.891113,6.437500 
	C192.358795,6.074122 206.734512,6.153631 221.488617,6.669482 
	C221.256042,9.428217 220.645065,11.750608 220.034103,14.073000 
z"/>
<path fill="#3D4952" opacity="1.000000" stroke="none" 
	d="
M399.568298,286.862732 
	C399.540680,283.434265 398.033630,281.658752 394.656708,281.057037 
	C387.916901,279.856171 381.192444,278.554352 374.497650,277.125519 
	C372.668518,276.735168 370.449982,280.976349 369.032166,276.294128 
	C386.129181,275.941406 403.242676,275.931580 420.706665,276.512085 
	C421.355011,280.327637 421.652893,283.552826 421.950775,286.778015 
	C421.717957,287.042206 421.485138,287.306427 421.072876,287.763855 
	C413.937378,287.600861 406.981262,287.244629 399.568298,286.862732 
z"/>
<path fill="#E5E09A" opacity="1.000000" stroke="none" 
	d="
M187.967651,275.312531 
	C185.000183,275.433807 182.032715,275.555084 178.620880,275.677795 
	C178.176498,275.679169 178.146408,275.279938 178.100922,274.667816 
	C177.983093,250.356339 177.910751,226.656967 177.914825,202.497208 
	C177.951233,157.378250 177.921524,112.719688 177.859482,68.061165 
	C177.850693,61.736382 177.684402,55.411816 177.591003,49.087151 
	C177.637878,48.600788 177.684753,48.114422 177.762421,46.837158 
	C177.721603,43.393948 177.649963,40.741638 177.578323,38.089333 
	C177.624054,37.290558 177.669800,36.491787 177.746185,34.954163 
	C177.705582,33.506992 177.634323,32.798668 177.563080,32.090347 
	C177.625336,31.882875 177.687592,31.675402 177.863129,31.161758 
	C180.642532,32.646191 183.308640,34.436794 185.686737,36.547295 
	C183.632233,35.914307 181.865707,34.961418 179.708954,33.798042 
	C179.442734,38.316372 179.033066,42.074497 179.028809,45.833088 
	C178.983734,85.579208 178.904404,125.325760 179.049255,165.071411 
	C179.115265,183.183243 179.765915,201.292221 179.953766,219.404526 
	C180.112701,234.728760 180.128555,250.057983 179.908737,265.380707 
	C179.833755,270.607727 179.544144,275.263580 186.946014,274.313873 
	C187.239014,274.276276 187.624985,274.963196 187.967651,275.312531 
z"/>
<path fill="#3D4952" opacity="1.000000" stroke="none" 
	d="
M278.406189,286.981598 
	C280.004730,286.513672 281.944427,286.036346 283.885010,286.032745 
	C309.531067,285.985352 335.181427,285.749298 360.820831,286.166565 
	C368.271210,286.287842 374.943359,284.510406 381.654205,281.951080 
	C382.237305,281.728729 382.892456,281.684021 383.519867,281.598969 
	C383.643066,281.582275 383.792664,281.760101 383.930359,281.848206 
	C384.026215,283.510254 384.121765,285.172333 384.516388,286.911682 
	C384.512421,287.601776 384.209412,288.214569 383.643951,288.891541 
	C380.960571,288.539734 378.541107,287.771362 376.118469,287.761230 
	C345.483032,287.633057 314.847168,287.620300 284.211426,287.551544 
	C282.389923,287.547455 280.568970,287.317322 278.406189,286.981598 
z"/>
<path fill="#3A3A31" opacity="1.000000" stroke="none" 
	d="
M177.396271,49.439770 
	C177.684402,55.411816 177.850693,61.736382 177.859482,68.061165 
	C177.921524,112.719688 177.951233,157.378250 177.701416,202.504303 
	C177.411560,202.971802 176.984711,202.956970 176.984711,202.956970 
	C176.973251,153.889923 176.958847,104.822868 176.961029,55.755817 
	C176.961121,53.768005 177.117813,51.780197 177.396271,49.439770 
z"/>
<path fill="#3D4952" opacity="1.000000" stroke="none" 
	d="
M383.688538,402.825409 
	C383.273621,385.289368 383.187622,367.586456 383.235840,349.434265 
	C383.875702,350.097260 384.815521,351.207123 384.821625,352.322144 
	C384.909546,368.353180 384.883209,384.384918 384.828400,400.416321 
	C384.825836,401.164612 384.299744,401.911163 383.688538,402.825409 
z"/>
<path fill="#303230" opacity="1.000000" stroke="none" 
	d="
M6.331317,515.235718 
	C41.351067,514.870422 76.685555,514.775208 112.471115,514.785400 
	C111.536613,515.258728 110.151611,515.945496 108.765381,515.947937 
	C75.696449,516.007080 42.627373,515.996887 9.558343,515.971497 
	C8.587464,515.970703 7.616816,515.667786 6.331317,515.235718 
z"/>
<path fill="#3D4952" opacity="1.000000" stroke="none" 
	d="
M383.702332,447.841888 
	C383.287872,435.641754 383.200256,423.268433 383.244843,410.447388 
	C383.878082,411.108765 384.803131,412.213684 384.814240,413.327637 
	C384.920715,424.028168 384.889832,434.730316 384.833405,445.431641 
	C384.829468,446.178680 384.309296,446.923065 383.702332,447.841888 
z"/>
<path fill="#332D0B" opacity="1.000000" stroke="none" 
	d="
M176.985229,203.430084 
	C176.984711,202.956970 177.411560,202.971802 177.624969,202.964706 
	C177.910751,226.656967 177.983093,250.356339 177.970154,274.516235 
	C177.587692,273.054352 177.037704,271.132629 177.032089,269.209320 
	C176.968506,247.440750 176.988297,225.671936 176.985229,203.430084 
z"/>
<path fill="#505658" opacity="1.000000" stroke="none" 
	d="
M139.691132,514.648071 
	C141.551407,514.001831 143.707230,513.515503 146.202576,512.904968 
	C145.393051,516.807007 142.248795,514.381104 139.691132,514.648071 
z"/>
<path fill="#3A3A31" opacity="1.000000" stroke="none" 
	d="
M177.393021,38.414551 
	C177.649963,40.741638 177.721603,43.393948 177.693024,46.475609 
	C177.464462,44.183235 177.336090,41.461498 177.393021,38.414551 
z"/>
<path fill="#303230" opacity="1.000000" stroke="none" 
	d="
M129.169556,515.008667 
	C130.095779,514.640564 131.158737,514.504944 132.595032,514.543152 
	C131.747711,514.891663 130.527008,515.066406 129.169556,515.008667 
z"/>
<path fill="#3A3A31" opacity="1.000000" stroke="none" 
	d="
M177.399384,32.292656 
	C177.634323,32.798668 177.705582,33.506992 177.674408,34.559166 
	C177.459885,34.100338 177.347794,33.297653 177.399384,32.292656 
z"/>
<path fill="#303230" opacity="1.000000" stroke="none" 
	d="
M135.039642,514.853027 
	C135.169159,514.640015 135.335098,514.572754 135.749756,514.606201 
	C135.690979,514.804321 135.383514,514.901550 135.039642,514.853027 
z"/>
<path fill="#505658" opacity="1.000000" stroke="none" 
	d="
M4.916710,513.737427 
	C4.897174,513.698608 5.135910,513.554260 5.135910,513.554260 
	C5.135910,513.554260 5.290005,513.784912 5.161483,513.848999 
	C5.032960,513.913147 4.936246,513.776245 4.916710,513.737427 
z"/>
<path fill="#CFCDCC" opacity="1.000000" stroke="none" 
	d="
M530.993225,276.213470 
	C526.685730,276.254486 522.378174,276.295471 517.186523,276.353149 
	C514.437439,276.445557 512.572510,276.521271 510.773621,276.230408 
	C510.840942,275.615448 510.842224,275.367126 510.843475,275.118835 
	C556.917419,263.378754 588.954041,235.168579 608.581909,191.469498 
	C609.008301,190.240173 609.147217,189.603287 609.286072,188.966385 
	C609.286072,188.966385 609.379089,188.873917 609.614868,188.755096 
	C610.180359,188.524597 610.510071,188.412888 610.839783,188.301193 
	C610.839783,217.247879 610.839783,246.194580 610.839783,275.872437 
	C601.461670,275.872437 592.191833,275.872437 582.001709,275.867004 
	C564.385376,275.978882 547.689270,276.096191 530.993225,276.213470 
z"/>
<path fill="#D0CFCF" opacity="1.000000" stroke="none" 
	d="
M611.431030,59.543587 
	C611.414124,69.208603 611.306763,78.413040 611.051636,88.070671 
	C610.903870,88.523872 610.802429,88.780869 610.422607,88.412949 
	C609.755127,87.841225 609.467529,87.637413 609.179871,87.433609 
	C605.286377,79.952988 601.962341,72.103302 597.396362,65.058563 
	C581.539856,40.593933 560.433960,22.157021 533.224121,11.078196 
	C531.535583,10.390682 529.911682,9.544554 528.128540,8.452643 
	C552.365601,7.967037 576.731873,7.801012 601.562500,7.558459 
	C604.849731,7.481934 607.672546,7.481934 611.340454,7.481934 
	C611.340454,24.919230 611.340454,42.001114 611.431030,59.543587 
z"/>
<path fill="#C7C4C3" opacity="1.000000" stroke="none" 
	d="
M418.430786,16.015745 
	C416.498840,15.700489 414.926758,15.050495 413.350891,15.041312 
	C400.056946,14.963847 386.761902,14.941439 373.468018,15.029249 
	C364.193573,15.090508 354.920410,15.351017 345.323303,14.881588 
	C346.679382,11.943445 348.358917,9.646240 350.038422,7.349035 
	C361.052765,7.287051 372.067078,7.225068 383.541443,7.065358 
	C399.703400,7.032041 415.405273,7.096448 431.823242,7.411316 
	C433.349731,7.748644 434.160156,7.835512 434.970612,7.922379 
	C435.141968,7.960027 435.313293,7.997674 435.744232,8.081446 
	C430.265503,10.744398 424.527222,13.361225 418.430786,16.015745 
z"/>
<path fill="#121917" opacity="1.000000" stroke="none" 
	d="
M443.945404,276.761475 
	C445.576599,276.688873 447.207825,276.616272 449.700714,276.764374 
	C453.157288,276.965454 455.752167,276.945862 458.347046,276.926270 
	C458.834473,276.813385 459.321869,276.700531 460.466248,276.679138 
	C462.134949,276.739441 463.146667,276.708252 464.158386,276.677094 
	C467.042175,276.679413 469.925995,276.681702 473.703308,276.753052 
	C482.520447,276.526764 490.444000,276.231384 498.367584,275.936035 
	C501.083679,275.709167 503.799805,275.482300 506.942505,275.451904 
	C507.369110,275.648376 507.298523,275.899902 507.134430,276.236664 
	C505.104401,277.516296 503.211304,278.409454 501.377777,279.411652 
	C496.426819,282.117859 491.478851,284.119080 485.523285,284.175049 
	C472.836365,284.294281 460.248138,283.885773 447.911591,280.786377 
	C446.350952,280.394287 445.256073,278.148468 443.945404,276.761475 
z"/>
<path fill="#3D4952" opacity="1.000000" stroke="none" 
	d="
M498.054352,275.800659 
	C490.444000,276.231384 482.520447,276.526764 474.244843,276.764587 
	C481.842255,276.359802 489.791687,276.012543 498.054352,275.800659 
z"/>
<path fill="#AB2427" opacity="1.000000" stroke="none" 
	d="
M610.891357,187.882477 
	C610.510071,188.412888 610.180359,188.524597 609.593262,188.693161 
	C610.212463,185.241486 611.088989,181.732925 612.271240,178.083511 
	C612.032288,181.116364 611.487549,184.290070 610.891357,187.882477 
z"/>
<path fill="#AB2427" opacity="1.000000" stroke="none" 
	d="
M614.907715,166.236221 
	C614.612061,169.142578 614.035767,172.287399 613.222778,175.696396 
	C613.533081,172.798599 614.080078,169.636642 614.907715,166.236221 
z"/>
<path fill="#AB2427" opacity="1.000000" stroke="none" 
	d="
M609.126953,87.856705 
	C609.467529,87.637413 609.755127,87.841225 610.480225,88.396408 
	C610.917664,88.747772 611.170044,88.743759 611.170044,88.743759 
	C611.166687,89.299301 611.163269,89.854851 611.230103,90.983139 
	C611.375793,91.777649 611.519043,91.939728 611.730042,92.042122 
	C611.767944,92.248894 611.805908,92.455666 611.942200,93.202316 
	C612.267639,94.171753 612.494690,94.601311 612.721741,95.030861 
	C612.703369,95.508202 612.684998,95.985535 612.569824,96.808121 
	C611.339966,94.195518 610.206970,91.237671 609.126953,87.856705 
z"/>
<path fill="#3D4952" opacity="1.000000" stroke="none" 
	d="
M458.178864,276.670319 
	C455.752167,276.945862 453.157288,276.965454 450.104187,276.829742 
	C450.583710,276.503845 451.521454,276.333313 452.812012,276.072906 
	C454.780121,276.126801 456.395416,276.270569 458.178864,276.670319 
z"/>
<path fill="#AB2427" opacity="1.000000" stroke="none" 
	d="
M616.478577,159.315262 
	C616.445312,160.688004 616.182129,162.312973 615.635742,164.152618 
	C615.651306,162.767365 615.950012,161.167435 616.478577,159.315262 
z"/>
<path fill="#3D4952" opacity="1.000000" stroke="none" 
	d="
M507.298523,275.899902 
	C507.298523,275.899902 507.369110,275.648376 507.449158,275.540405 
	C508.405090,275.301025 509.280945,275.169647 510.500122,275.078552 
	C510.842224,275.367126 510.840942,275.615448 510.551117,276.382080 
	C509.274536,276.566895 508.286530,276.233398 507.298523,275.899902 
z"/>
<path fill="#3D4952" opacity="1.000000" stroke="none" 
	d="
M464.000793,276.525635 
	C463.146667,276.708252 462.134949,276.739441 460.842651,276.687012 
	C461.655792,276.526978 462.749481,276.450592 464.000793,276.525635 
z"/>
<path fill="#AB2427" opacity="1.000000" stroke="none" 
	d="
M613.755554,103.173080 
	C614.201050,103.519615 614.456543,104.021690 614.627075,104.810760 
	C614.216675,104.508049 613.891113,103.918335 613.755554,103.173080 
z"/>
<path fill="#3E3C3A" opacity="1.000000" stroke="none" 
	d="
M612.905151,97.461151 
	C613.200500,97.697464 613.472351,98.239944 613.682861,99.103729 
	C613.374817,98.872467 613.128235,98.319885 612.905151,97.461151 
z"/>
<path fill="#AB2427" opacity="1.000000" stroke="none" 
	d="
M609.002808,189.176910 
	C609.147217,189.603287 609.008301,190.240173 608.651367,191.114212 
	C608.528809,190.696701 608.624207,190.042068 609.002808,189.176910 
z"/>
<path fill="#2A2D2B" opacity="1.000000" stroke="none" 
	d="
M507.134430,276.236664 
	C508.286530,276.233398 509.274536,276.566895 510.485046,276.748718 
	C512.572510,276.521271 514.437439,276.445557 516.754700,276.489197 
	C517.509277,278.565216 517.811646,280.521912 517.962646,281.499481 
	C516.041443,283.147644 514.526672,284.447144 513.007141,286.107391 
	C498.069763,286.586639 483.137329,286.735901 468.204529,286.814972 
	C453.097290,286.894958 437.989685,286.905487 422.416504,286.862244 
	C421.652893,283.552826 421.355011,280.327637 421.098145,276.662872 
	C428.445892,276.299988 435.752686,276.376709 443.502441,276.607422 
	C445.256073,278.148468 446.350952,280.394287 447.911591,280.786377 
	C460.248138,283.885773 472.836365,284.294281 485.523285,284.175049 
	C491.478851,284.119080 496.426819,282.117859 501.377777,279.411652 
	C503.211304,278.409454 505.104401,277.516296 507.134430,276.236664 
z"/>
<path fill="#333431" opacity="1.000000" stroke="none" 
	d="
M531.010803,276.587311 
	C547.689270,276.096191 564.385376,275.978882 581.541138,275.960754 
	C580.986023,276.703156 580.046814,277.685394 578.943298,277.932098 
	C573.643921,279.116608 568.333435,280.346039 562.961426,281.080536 
	C558.779114,281.652405 554.498352,281.704437 550.265320,281.653656 
	C545.128784,281.592072 539.959473,281.447998 534.885986,280.747681 
	C533.453186,280.549896 532.306396,278.280457 531.010803,276.587311 
z"/>
<path fill="#B6B6B4" opacity="1.000000" stroke="none" 
	d="
M349.577087,7.247211 
	C348.358917,9.646240 346.679382,11.943445 344.999939,14.621451 
	C316.643890,15.009129 288.287811,15.016005 259.463409,14.619117 
	C258.674377,11.733057 258.353638,9.250759 258.032867,6.768462 
	C267.976288,6.770154 277.919922,6.733945 287.863129,6.781460 
	C308.280792,6.879028 328.698242,7.021436 349.577087,7.247211 
z"/>
<path fill="#B5B5B4" opacity="1.000000" stroke="none" 
	d="
M257.581482,6.625338 
	C258.353638,9.250759 258.674377,11.733057 258.997925,14.610941 
	C247.895111,14.999469 236.789383,15.016169 225.684052,14.959274 
	C224.051697,14.950912 222.421112,14.593183 220.411911,14.235050 
	C220.645065,11.750608 221.256042,9.428217 221.948578,6.770868 
	C233.730148,6.451345 245.430145,6.466780 257.581482,6.625338 
z"/>
<path fill="#B6B6B4" opacity="1.000000" stroke="none" 
	d="
M434.809814,7.632236 
	C434.160156,7.835512 433.349731,7.748644 432.290100,7.477292 
	C432.910309,7.309236 433.779663,7.325665 434.809814,7.632236 
z"/>
<path fill="#3E3C3A" opacity="1.000000" stroke="none" 
	d="
M612.762207,94.773117 
	C612.494690,94.601311 612.267639,94.171753 612.050049,93.498650 
	C612.307190,93.675194 612.554932,94.095284 612.762207,94.773117 
z"/>
<path fill="#3E3C3A" opacity="1.000000" stroke="none" 
	d="
M611.179688,88.714828 
	C611.170044,88.743759 610.917664,88.747772 610.860046,88.764320 
	C610.802429,88.780869 610.903870,88.523872 611.030945,88.578712 
	C611.158020,88.633553 611.189331,88.685905 611.179688,88.714828 
z"/>
<path fill="#3E3C3A" opacity="1.000000" stroke="none" 
	d="
M611.718323,91.877968 
	C611.519043,91.939728 611.375793,91.777649 611.296509,91.394432 
	C611.499512,91.334023 611.637451,91.494301 611.718323,91.877968 
z"/>
<path fill="#3D4952" opacity="1.000000" stroke="none" 
	d="
M261.408875,286.649231 
	C261.457397,286.476257 261.606384,286.338440 261.732849,286.407288 
	C261.710297,286.613922 261.509369,286.684387 261.408875,286.649231 
z"/>
<path fill="#F2EC88" opacity="1.000000" stroke="none" 
	d="
M188.336609,275.432129 
	C187.624985,274.963196 187.239014,274.276276 186.946014,274.313873 
	C179.544144,275.263580 179.833755,270.607727 179.908737,265.380707 
	C180.128555,250.057983 180.112701,234.728760 179.953766,219.404526 
	C179.765915,201.292221 179.115265,183.183243 179.049255,165.071411 
	C178.904404,125.325760 178.983734,85.579208 179.028809,45.833088 
	C179.033066,42.074497 179.442734,38.316372 179.708954,33.798042 
	C181.865707,34.961418 183.632233,35.914307 185.759491,36.886486 
	C186.120209,36.905781 186.555115,36.966473 186.824219,37.341625 
	C192.058716,41.480991 197.024094,45.245209 201.989487,49.009422 
	C201.989487,49.009422 202.000000,49.000305 202.047394,49.355354 
	C206.762466,53.448334 211.430145,57.186256 216.097839,60.924179 
	C216.569305,61.205910 217.040787,61.487640 217.801422,62.245735 
	C221.425491,65.455345 224.760361,68.188599 228.095245,70.921844 
	C230.844620,72.893944 233.593994,74.866035 236.679245,77.299850 
	C238.368851,78.823402 239.722580,79.885223 241.076324,80.947052 
	C241.076324,80.947052 241.524368,81.002098 241.808136,81.373901 
	C243.758453,83.141228 245.425003,84.536758 247.091553,85.932281 
	C247.603958,86.153366 248.116348,86.374443 248.875168,87.120682 
	C249.763016,88.084129 250.404465,88.522415 251.045898,88.960701 
	C251.574005,89.163445 252.102097,89.366188 252.862701,90.138336 
	C258.090515,94.782875 263.085846,98.858002 268.081177,102.933136 
	C268.556671,103.211296 269.032166,103.489464 269.763550,104.264923 
	C271.028961,105.496590 272.038422,106.230972 273.047913,106.965363 
	C273.508667,107.280754 273.969452,107.596146 274.759003,108.319313 
	C278.423889,111.461128 281.759979,114.195168 285.096069,116.929207 
	C285.566742,117.210640 286.037445,117.492073 286.812347,118.217606 
	C287.764069,119.095367 288.411560,119.529015 289.059052,119.962662 
	C289.518829,120.274719 289.978607,120.586769 290.766418,121.304214 
	C292.435364,122.777473 293.776245,123.845345 295.117157,124.913216 
	C295.909546,125.508049 296.701904,126.102882 297.799866,127.192169 
	C301.429871,130.104004 304.754272,132.521408 308.078674,134.938797 
	C308.078674,134.938797 308.529144,134.988892 308.810181,135.361481 
	C312.750092,138.799301 316.408966,141.864548 320.067841,144.929779 
	C320.067841,144.929779 320.045258,144.995819 320.173828,145.305801 
	C319.681122,147.767883 319.382111,150.089142 318.362244,152.032013 
	C316.873383,154.868378 314.866730,157.432953 313.080811,160.113373 
	C312.797577,160.579300 312.514404,161.045227 311.755432,161.800110 
	C306.871704,166.694336 302.324005,171.176880 298.122467,175.963303 
	C296.364716,177.965744 295.341797,180.613205 293.984802,182.967407 
	C293.843994,183.268250 293.644379,183.523056 292.839478,183.913635 
	C287.876892,189.418793 283.460815,194.742111 279.044739,200.065430 
	C277.853271,201.575592 276.661835,203.085724 274.886261,204.844498 
	C273.572296,206.092041 272.842438,207.090958 272.112549,208.089874 
	C272.112549,208.089874 272.029510,208.027420 271.696228,208.085144 
	C269.264923,210.792603 267.166901,213.442322 265.068878,216.092041 
	C264.550995,216.954926 264.033112,217.817810 262.899902,218.888550 
	C260.849976,221.051285 259.415344,223.006165 257.980682,224.961029 
	C256.755646,226.451126 255.530624,227.941238 253.808350,229.762817 
	C252.560425,231.091293 251.809753,232.088318 251.059082,233.085327 
	C251.059082,233.085327 251.020096,233.533798 250.649902,233.812897 
	C248.553955,236.106430 246.828186,238.120850 245.102432,240.135284 
	C244.817245,240.597290 244.532059,241.059280 243.772018,241.806946 
	C241.886948,243.758453 240.476761,245.424286 239.066559,247.090118 
	C239.066559,247.090118 239.016846,247.537033 238.644653,247.813934 
	C236.537155,250.085968 234.801849,252.081085 233.066559,254.076218 
	C232.553055,254.947861 232.039566,255.819504 230.913101,256.897400 
	C228.558395,259.432678 226.816666,261.761719 225.074921,264.090759 
	C225.074921,264.090759 225.026978,264.539154 224.651947,264.815125 
	C220.539215,268.466766 216.801498,271.842407 213.063782,275.218079 
	C211.926941,275.300873 210.790085,275.383667 209.106308,275.062500 
	C202.702179,274.870544 196.844971,275.082520 190.987762,275.294525 
	C190.227036,275.380249 189.466309,275.466003 188.336609,275.432129 
z"/>
<path fill="#E5E09A" opacity="1.000000" stroke="none" 
	d="
M294.285950,182.822418 
	C295.341797,180.613205 296.364716,177.965744 298.122467,175.963303 
	C302.324005,171.176880 306.871704,166.694336 311.616669,162.035019 
	C310.357544,164.225876 308.923248,166.610336 307.132538,168.687515 
	C303.043427,173.430771 298.779816,178.023544 294.285950,182.822418 
z"/>
<path fill="#E5E09A" opacity="1.000000" stroke="none" 
	d="
M279.381409,199.998474 
	C283.460815,194.742111 287.876892,189.418793 292.632263,184.043213 
	C288.553680,189.304474 284.135895,194.617996 279.381409,199.998474 
z"/>
<path fill="#E5E09A" opacity="1.000000" stroke="none" 
	d="
M268.009521,102.599167 
	C263.085846,98.858002 258.090515,94.782875 253.047089,90.358223 
	C257.978638,94.094200 262.958252,98.179695 268.009521,102.599167 
z"/>
<path fill="#E5E09A" opacity="1.000000" stroke="none" 
	d="
M201.836517,48.712975 
	C197.024094,45.245209 192.058716,41.480991 187.040710,37.378197 
	C191.886581,40.831921 196.785049,44.624226 201.836517,48.712975 
z"/>
<path fill="#E5E09A" opacity="1.000000" stroke="none" 
	d="
M313.414612,160.037445 
	C314.866730,157.432953 316.873383,154.868378 318.362244,152.032013 
	C319.382111,150.089142 319.681122,147.767883 320.176361,145.273376 
	C324.267609,145.351288 323.526337,148.331512 322.137054,150.318741 
	C319.709717,153.790878 316.582397,156.773651 313.414612,160.037445 
z"/>
<path fill="#E5E09A" opacity="1.000000" stroke="none" 
	d="
M216.025208,60.589096 
	C211.430145,57.186256 206.762466,53.448334 202.042953,49.361622 
	C206.644943,52.759895 211.298752,56.506954 216.025208,60.589096 
z"/>
<path fill="#E5E09A" opacity="1.000000" stroke="none" 
	d="
M213.460693,275.335449 
	C216.801498,271.842407 220.539215,268.466766 224.613129,265.037262 
	C222.718552,268.152191 220.487747,271.320984 218.096130,274.793671 
	C216.576065,275.215973 215.216827,275.334412 213.460693,275.335449 
z"/>
<path fill="#E5E09A" opacity="1.000000" stroke="none" 
	d="
M320.005463,144.594025 
	C316.408966,141.864548 312.750092,138.799301 309.033478,135.400024 
	C312.631531,138.130096 316.287292,141.194199 320.005463,144.594025 
z"/>
<path fill="#E5E09A" opacity="1.000000" stroke="none" 
	d="
M228.025055,70.587677 
	C224.760361,68.188599 221.425491,65.455345 218.038361,62.385044 
	C221.309036,64.783165 224.631958,67.518333 228.025055,70.587677 
z"/>
<path fill="#E5E09A" opacity="1.000000" stroke="none" 
	d="
M285.026001,116.594116 
	C281.759979,114.195168 278.423889,111.461128 275.034424,108.390671 
	C278.306000,110.789177 281.630951,113.524109 285.026001,116.594116 
z"/>
<path fill="#E5E09A" opacity="1.000000" stroke="none" 
	d="
M307.983276,134.617126 
	C304.754272,132.521408 301.429871,130.104004 298.053955,127.346725 
	C301.297577,129.436371 304.592743,131.865906 307.983276,134.617126 
z"/>
<path fill="#E5E09A" opacity="1.000000" stroke="none" 
	d="
M265.403381,216.019165 
	C267.166901,213.442322 269.264923,210.792603 271.726624,208.127258 
	C269.972839,210.723206 267.855347,213.334763 265.403381,216.019165 
z"/>
<path fill="#E5E09A" opacity="1.000000" stroke="none" 
	d="
M225.411133,264.018951 
	C226.816666,261.761719 228.558395,259.432678 230.640839,257.053741 
	C229.236801,259.318268 227.492065,261.632721 225.411133,264.018951 
z"/>
<path fill="#E5E09A" opacity="1.000000" stroke="none" 
	d="
M233.399658,254.009033 
	C234.801849,252.081085 236.537155,250.085968 238.606506,248.035522 
	C237.204636,249.967407 235.468704,251.954636 233.399658,254.009033 
z"/>
<path fill="#E5E09A" opacity="1.000000" stroke="none" 
	d="
M245.431335,240.053314 
	C246.828186,238.120850 248.553955,236.106430 250.615021,234.035248 
	C249.220306,235.976120 247.490280,237.973724 245.431335,240.053314 
z"/>
<path fill="#E5E09A" opacity="1.000000" stroke="none" 
	d="
M258.282959,224.822678 
	C259.415344,223.006165 260.849976,221.051285 262.627716,219.041809 
	C261.508942,220.886261 260.047089,222.785294 258.282959,224.822678 
z"/>
<path fill="#E5E09A" opacity="1.000000" stroke="none" 
	d="
M247.017181,85.601257 
	C245.425003,84.536758 243.758453,83.141228 242.030090,81.414909 
	C243.626434,82.479492 245.284622,83.874863 247.017181,85.601257 
z"/>
<path fill="#E5E09A" opacity="1.000000" stroke="none" 
	d="
M239.399811,247.021759 
	C240.476761,245.424286 241.886948,243.758453 243.635101,242.041504 
	C242.559738,243.644714 241.146408,245.299057 239.399811,247.021759 
z"/>
<path fill="#E5E09A" opacity="1.000000" stroke="none" 
	d="
M241.005096,80.616333 
	C239.722580,79.885223 238.368851,78.823402 236.996841,77.409172 
	C238.297012,78.133049 239.615433,79.209335 241.005096,80.616333 
z"/>
<path fill="#E5E09A" opacity="1.000000" stroke="none" 
	d="
M295.038147,124.585678 
	C293.776245,123.845345 292.435364,122.777473 291.041412,121.372925 
	C292.311951,122.110214 293.635529,123.184181 295.038147,124.585678 
z"/>
<path fill="#E5E09A" opacity="1.000000" stroke="none" 
	d="
M272.978455,106.655350 
	C272.038422,106.230972 271.028961,105.496590 270.001892,104.403595 
	C270.959229,104.811768 271.934113,105.578560 272.978455,106.655350 
z"/>
<path fill="#E5E09A" opacity="1.000000" stroke="none" 
	d="
M251.384003,233.012573 
	C251.809753,232.088318 252.560425,231.091293 253.645584,230.043304 
	C253.223022,230.974823 252.465973,231.957321 251.384003,233.012573 
z"/>
<path fill="#E5E09A" opacity="1.000000" stroke="none" 
	d="
M272.433960,208.021027 
	C272.842438,207.090958 273.572296,206.092041 274.635254,205.040710 
	C274.230713,205.976257 273.493011,206.964203 272.433960,208.021027 
z"/>
<path fill="#E5E09A" opacity="1.000000" stroke="none" 
	d="
M250.971802,88.658485 
	C250.404465,88.522415 249.763016,88.084129 249.054962,87.339905 
	C249.624802,87.474747 250.261246,87.915512 250.971802,88.658485 
z"/>
<path fill="#E5E09A" opacity="1.000000" stroke="none" 
	d="
M288.985901,119.658707 
	C288.411560,119.529015 287.764069,119.095367 287.048859,118.356857 
	C287.625031,118.486252 288.268890,118.920502 288.985901,119.658707 
z"/>
<path fill="#E5E09A" opacity="1.000000" stroke="none" 
	d="
M191.438126,275.430420 
	C196.844971,275.082520 202.702179,274.870544 208.780701,274.942017 
	C203.297501,275.339111 197.593002,275.452698 191.438126,275.430420 
z"/>
</svg>