<?xml version="1.0" encoding="utf-8"?>
<!-- Generator: Adobe Illustrator 25.2.1, SVG Export Plug-In . SVG Version: 6.00 Build 0)  -->
<svg version="1.1" id="Layer_1" xmlns="http://www.w3.org/2000/svg" xmlns:xlink="http://www.w3.org/1999/xlink" x="0px" y="0px"
	 viewBox="0 0 841.89 595.276" style="enable-background:new 0 0 841.89 595.276;" xml:space="preserve">
<g>
	<path d="M309.217,141.103c0.556,0.257,0.673,0.662,0.778,1.123c0.889,3.893,3.619,6.181,7.058,7.658
		c2.598,1.116,5.445,1.412,8.217,1.948c4.293,0.83,8.654,1.356,12.857,2.591c2.741,0.805,5.504,1.605,7.971,3.151
		c1.848,1.158,3.103,2.706,3.675,4.834c1.388,5.159,3.489,10.038,6.521,14.419c1.839,2.658,3.108,3.535,5.586,0.064
		c2.22-3.11,4.508-6.174,7.666-8.437c2.493-1.787,5.234-2.964,8.296-3.349c0.29-0.036,0.571-0.148,0.937-0.246
		c0.522-2.199,0.461-4.43,0.391-6.664c-0.107-3.398-0.68-6.732-1.54-10.006c-0.5-1.901-1.186-3.759-1.871-5.605
		c-1-2.693-1.916-5.414-3.082-8.05c-3.345-7.559-8.614-13.045-16.556-15.75c-3.018-1.028-6.104-1.601-9.288-1.917
		c-4.795-0.475-9.578-1.175-14.212-2.576c-1.512-0.457-2.981-1.095-4.31-1.973c-3.678-2.428-3.869-5.659-2.851-9.313
		c0.429-1.542,0.832-3.161,2.001-4.573c0.438,1.298,0.126,2.459-0.213,3.69c0.557,1.005,0.274,2.258,0.956,3.347
		c0.686,1.094,1.561,1.691,2.745,2.046c2.554,0.768,5.209,0.809,7.822,1.055c3.875,0.364,7.741,0.803,11.525,1.654
		c4.442,0.999,8.824,2.3,12.696,4.828c5.19,3.388,9.7,7.488,13.136,12.706c0.335,0.509,0.194,1.506,1.236,1.441
		c0.318-0.197,0.213-0.528,0.222-0.809c0.163-4.991,2.304-8.918,6.304-11.881c2.397-1.776,4.581-3.75,5.91-6.517
		c1.238-2.578,1.365-5.155,0.231-7.786c-0.098-0.227-0.213-0.451-0.113-0.71c0.84,0.377,1.454,1.081,1.754,2.223
		c1.436,5.461,0.283,10.317-3.458,14.554c-1.243,1.407-2.698,2.609-3.732,4.224c-1.074,1.678-1.746,3.431-1.739,5.424
		c0.008,2.194-0.151,4.411,0.107,6.577c0.287,2.404,0.929,4.769,1.477,7.138c0.953,4.119,1.911,8.237,2.946,12.336
		c0.628,2.49,1.456,4.929,2.099,7.416c0.998,3.856,2.416,7.577,3.58,11.379c2.03,6.626,4.334,13.168,7.629,19.283
		c1.516,2.813,3.161,5.654,5.97,7.466c2.413,1.556,5.035,2.079,7.767,0.959c1.546-0.634,2.354-2.062,2.545-3.615
		c0.416-3.378,0.021-6.684-0.918-10c-1.243-4.392-3.172-8.577-3.977-13.088c-0.83-4.657,0.137-8.891,3.36-12.478
		c2.739-3.048,6.03-5.417,9.518-7.508c3.351-2.009,6.927-3.59,10.515-5.114c6.076-2.581,10.078-6.933,12.083-13.262
		c1.721-5.433,2.693-10.96,3.177-16.629c0.25-2.935,0.455-5.858,0.451-8.799c0-0.248,0.015-0.501,0.267-0.692
		c0.657-0.039,0.87,0.509,1.155,0.95c0.994,1.541,1.5,3.295,1.686,5.059c0.368,3.486,0.021,6.936-0.852,10.361
		c-1.068,4.187-2.519,8.255-3.656,12.421c-0.416,1.524-0.743,2.953-0.401,4.49c1.084,0.726,2.147,0.539,3.193,0.137
		c1.759-0.675,3.467-1.507,5.262-2.056c2.335-0.715,4.73-1.237,7.006,0.305c1.274,0.863,2.078,2.101,2.762,3.426
		c1.279,2.476,2.115,5.137,3.186,7.7c0.592,1.417,1.226,2.821,2.187,4.026c1.596,2.002,3.785,2.942,6.251,3.395
		c2.706,0.496,4.985,1.704,6.287,4.26c0.93,1.826,1.442,3.754,1.054,5.838c-0.58,0.074-0.961-0.13-1.302-0.427
		c-3.016-2.625-6.48-4.438-10.162-5.978c-4.33-1.812-7.468-5.087-9.914-9.052c-0.835-1.354-1.453-2.829-2.292-4.169
		c-1.727-2.757-4.641-3.808-7.614-2.477c-4.51,2.019-9.173,3.729-13.492,6.137c-4.966,2.769-9.409,6.17-12.357,11.231
		c-2.302,3.952-3.163,8.181-2.966,12.7c0.094,2.155,0.596,4.224,1.073,6.307c0.508,2.217,0.954,4.448,1.469,6.663
		c0.586,2.519,1.145,5.042,1.62,7.585c0.511,2.733,1.032,5.468,1.694,8.167c0.65,2.654,1.019,5.359,1.605,8.026
		c0.659,3.001,1.291,6.011,2.031,8.992c1.273,5.136,2.502,10.29,4.94,15.053c1.112,2.172,2.6,3.41,5.231,3.38
		c2.72-0.031,5.31-0.486,7.93-1.129c2.202-0.54,4.382-1.188,6.637-1.548c2.943-0.47,5.851-1.16,8.779-1.726
		c2.246-0.434,4.484-0.918,6.731-1.326c8.195-1.491,15.049-5.267,20.488-11.594c6.028-7.013,11.049-14.687,15.198-22.946
		c1.651-3.287,3.174-6.645,4.209-10.157c0.709-2.405,1.43-4.852,1.611-7.408c0.133-1.882,0.604-3.734,0.386-5.649
		c-0.287-2.521-0.912-4.975-1.372-7.462c-0.467-2.523-0.467-5.043-0.009-7.568c0.993-5.47,4.591-9.306,8.191-13.153
		c2.451-2.619,5.638-4.128,8.705-5.804c2.868-1.568,5.739-3.137,8.265-5.217c2.256-1.857,3.688-4.127,3.692-7.281
		c0.003-2.469,0.556-4.938,0.876-7.405c0.789-6.068,2.045-12.114,0.956-18.277c-0.496-2.808-1.66-5.207-3.996-7.025
		c-2.457-1.912-4.808-3.972-6.734-6.449c-0.913-1.174-1.733-2.377-2.077-3.899c-0.51-2.259,0.362-3.911,2.081-5.157
		c1.837-1.332,3.82-2.46,5.625-3.848c1.845-1.419,3.534-3,4.973-4.828c0.84-1.066,1.292-2.325,1.536-3.795
		c1.423,0.955,1.326,2.458,1.536,3.72c0.321,1.932-0.407,3.567-1.942,4.859c-1.184,0.997-2.499,1.788-3.777,2.639
		c-0.87,0.579-1.652,1.245-2.324,2.047c-0.696,0.831-0.76,1.705-0.21,2.62c0.203,0.337,0.373,0.687,0.666,0.982
		c3.37,3.4,5.911,7.398,8.253,11.534c0.251,0.443,0.449,0.879,1.022,1.13c1.389-0.508,2.628-1.43,3.99-2.107
		c3.26-1.622,6.635-2.886,10.241-3.436c1.024-0.156,2.115-0.204,3.13-0.034c2.882,0.483,5.771,0.941,8.648,1.454
		c2.996,0.534,6.089,1.149,9.165,0.198c2.297-0.71,3.969-2.108,5.041-4.281c0.864-1.751,1.195-3.67,1.862-5.483
		c0.599-1.629,1.665-2.733,3.219-3.241c1.783-0.583,3.651-0.906,5.477-1.358c3.736-0.924,7.597-1.507,10.788-3.932
		c0.11-0.084,0.282-0.086,0.539-0.159c0.017,0.716-0.344,1.261-0.658,1.766c-1.839,2.958-4.309,5.081-7.76,6.022
		c-1.763,0.481-3.542,1.052-5.02,2.217c-2.305,1.817-2.871,4.424-3.133,7.135c-0.177,1.83-0.074,3.689-0.856,5.432
		c-0.925,2.06-2.438,3.341-4.697,3.612c-3.709,0.445-7.356-0.041-10.971-0.854c-3.599-0.809-7.204-1.467-10.932-1.267
		c-2.699,0.144-4.84,1.349-6.73,3.127c-2.952,2.776-4.914,6.201-6.252,9.978c-0.546,1.54-0.502,3.228-0.825,4.842
		c-1.055,5.259-2.316,10.439-4.326,15.433c-0.962,2.39-1.998,4.724-3.262,6.969c-1.104,1.961-2.531,3.649-4.093,5.243
		c-0.377,0.385-0.758,0.77-1.094,1.189c-3.371,4.211-2.265,8.242,2.249,11.563c1.755,1.291,3.768,1.932,5.818,2.431
		c2.906,0.708,5.667,1.83,8.479,2.799c3.169,1.092,6.307,2.28,9.407,3.567c1.74,0.722,3.405,1.617,5.21,2.19
		c2.697,0.857,5.447,0.714,8.134,0.202c6.684-1.272,12.755-4.201,18.81-7.181c2.654-1.306,5.47-2.204,8.394-2.835
		c2.088-0.45,4.151-0.555,6.225-0.405c2.272,0.165,4.165,1.139,5.227,3.272c-0.127,0.273-0.288,0.383-0.506,0.349
		c-3.733-0.584-7.031,0.792-10.313,2.264c-3.259,1.462-6.201,3.489-9.327,5.186c-4.301,2.336-8.597,4.703-13.237,6.323
		c-4.532,1.582-9.203,2.18-13.942,1.309c-2.617-0.481-5.154-1.388-7.739-2.057c-3.556-0.92-7.039-2.087-10.591-3.029
		c-3.157-0.837-6.282-1.78-9.504-2.357c-0.741-0.133-1.326-0.648-1.958-1.034c-3.118-1.906-6.081-4.074-9.495-5.479
		c-0.698-0.287-1.413-0.476-2.12-0.689c-1.687-0.509-2.812,0.578-2.317,2.268c0.661,2.256,1.006,4.559,1.378,6.872
		c0.423,2.631,0.391,5.266,0.438,7.904c0.097,5.399-0.506,10.74-1.429,16.049c-0.387,2.222-1.31,4.233-2.318,6.234
		c-2.177,4.325-4.206,8.725-6.411,13.035c-2.456,4.802-4.959,9.586-8.18,13.945c-1.102,1.491-2.374,2.774-3.919,3.824
		c-5.036,3.423-9.682,7.375-14.655,10.885c-3.964,2.797-7.987,5.494-12.495,7.378c-2.136,0.892-4.417,1.186-6.643,1.689
		c-6.353,1.435-12.092,4.025-16.615,8.835c-2.378,2.529-3.858,5.555-4.69,8.971c-0.629,2.58-0.583,5.145-0.457,7.721
		c0.119,2.432,0.806,4.791,1.445,7.133c0.94,3.445,1.961,6.868,3.003,10.284c0.834,2.736,1.756,5.445,2.63,8.17
		c1.377,4.296,2.934,8.526,3.802,12.989c0.86,4.424,0.761,8.842,0.298,13.239c-0.315,2.995-1.2,5.934-2.096,8.836
		c-0.978,3.169-1.795,6.39-2.851,9.531c-1.059,3.15-1.935,6.35-2.903,9.525c-0.827,2.71-1.478,5.47-1.99,8.25
		c-0.53,2.882-1.084,5.794-1.208,8.71c-0.281,6.622-0.36,13.252,0.217,19.876c0.263,3.024,0.454,6.054,0.807,9.07
		c0.702,6.001,2.082,11.78,4.845,17.234c1.989,3.927,3.633,8.042,4.576,12.378c0.788,3.625,1.052,7.324,0.595,10.988
		c-0.284,2.277-0.568,4.515-0.489,6.819c0.084,2.468,0.779,4.802,1.429,7.12c1.549,5.523,3.899,10.778,5.647,16.246
		c1.358,4.247,2.374,8.495,2.373,12.973c-0.001,2.018-0.557,3.944-0.794,5.921c-0.466,3.884,0.249,7.524,1.82,11.04
		c2.911,6.518,8.074,10.694,14.293,13.817c3.254,1.634,6.69,2.755,10.171,3.68c2.673,0.71,5.439,1.102,8.205,1.453
		c4.744,0.602,9.505,1.062,14.248,1.684c2.662,0.349,5.353,0.559,8.017,0.919c2.408,0.326,4.822,0.618,7.227,0.98
		c1.763,0.265,3.521,0.596,5.287,0.853c2.353,0.342,4.7,0.802,7.006,1.381c2.841,0.714,5.679,1.462,8.448,2.441
		c6.406,2.266,12.3,5.394,17.313,10.065c3.413,3.18,7.151,5.917,11.419,7.857c2.588,1.176,5.316,1.906,8.14,2.237
		c3.914,0.459,7.854,0.49,11.786,0.646c2.887,0.114,5.745,0.452,8.597,0.764c0.187,0.755-0.142,1.036-0.756,1.249
		c-2.477,0.858-4.933,1.616-7.592,1.923c-4.158,0.48-8.307,0.956-12.492,1.032c-2.889,0.053-5.768,0.034-8.65-0.446
		c-2.064-0.344-3.766-1.426-5.619-2.192c-2.541-1.05-5.176-1.737-7.856-2.254c-4.237-0.818-8.549-1.325-12.651-2.715
		c-2.767-0.938-5.323-2.371-7.849-3.852c-4.286-2.513-8.839-4.457-13.489-6.192c-4.096-1.528-8.293-2.687-12.576-3.523
		c-2.981-0.582-5.977-1.122-9.038-1.078c-2.543,0.037-5.091-0.007-7.629,0.125c-2.796,0.146-5.511,0.85-8.189,1.623
		c-2.334,0.674-4.695,1.185-7.068,1.691c-3.161,0.674-6.335,0.706-9.511,0.477c-5.594-0.404-10.737-2.156-15.339-5.437
		c-4.805-3.426-8.193-7.926-10.336-13.392c-0.786-2.005-1.274-4.136-1.472-6.234c-0.336-3.56-0.319-7.137,0.302-10.725
		c0.849-4.911,1.486-9.894,0.148-14.835c-0.815-3.011-1.965-5.912-3.335-8.726c-1.902-3.907-4.238-7.605-5.696-11.727
		c-0.956-2.704-1.315-5.444-1.069-8.344c0.402-4.739,1.797-9.226,2.987-13.78c0.841-3.219,1.626-6.467,1.867-9.81
		c0.123-1.715-0.174-3.389-0.568-5.035c-1.154-4.82-2.519-9.581-4.025-14.305c-1.027-3.219-1.864-6.499-2.794-9.749
		c-0.925-3.231-1.892-6.451-2.781-9.691c-0.948-3.453-1.687-6.954-2.2-10.502c-0.381-2.634,0.157-5.169,0.851-7.663
		c1.368-4.92,2.747-9.841,4.283-14.711c1.33-4.217,2.51-8.48,3.54-12.766c1.099-4.574,2.187-9.19,2.058-13.974
		c-0.062-2.307-0.566-4.52-1.017-6.761c-0.567-2.821-1.318-5.594-2.142-8.34c-0.784-2.615-1.448-5.265-2.347-7.851
		c-0.81-2.333-1.391-4.744-2.1-7.113c-0.654-2.185-1.397-4.345-2.003-6.542c-1.095-3.972-2.203-7.939-3.148-11.953
		c-0.818-3.476-1.544-6.968-2.193-10.474c-0.426-2.299-0.589-4.647-0.865-6.973c-0.444-3.749-0.996-7.479-1.745-11.184
		c-0.265-1.31-0.467-2.646-0.65-3.975c-0.531-3.842-1.49-7.591-2.326-11.369c-0.656-2.962-1.365-5.909-2.234-8.813
		c-1.634-5.462-3.257-10.927-6.177-15.9c-1.84-3.133-4.516-5.124-7.849-6.441c-3.7-1.462-7.578-2.364-11.286-3.802
		c-6.122-2.374-10.268-6.494-12.063-12.91c-1.19-4.253-2.145-8.56-3.199-12.844c-1.04-4.231-1.834-8.55-3.725-12.535
		c-1.052-2.216-2.287-3.08-4.023-2.827c-0.818,0.119-1.473,0.571-2.126,1.019c-2.615,1.795-4.805,4.083-7.175,6.164
		c-2.191,1.924-4.411,3.84-7.192,4.937c-3.652,1.441-7.076,0.608-9.723-2.246c-2.089-2.252-3.222-4.908-3.996-7.829
		c-0.401-1.513-0.74-3.057-1.469-4.505c-1.466-2.91-4.048-4.451-6.785-5.742c-4.346-2.049-8.768-3.944-13.317-5.506
		c-2.895-0.994-5.841-1.838-8.759-2.764c-3.825-1.213-7.692-2.346-10.476-5.54c-0.824-0.945-1.597-1.962-1.928-3.148
		C306.332,144.309,306.794,142.794,309.217,141.103z"/>
	<path d="M159.624,219.903c2.439,1.198,4.797,2.555,7.288,3.656c2.867,1.268,5.801,2.344,8.886,2.873
		c7.268,1.246,13.059,4.68,17.032,11.013c2.628,4.191,5.477,8.265,7.458,12.812c1.378,3.161,3.309,5.826,5.907,8.042
		c3.015,2.572,6.466,4.203,10.418,4.671c1.659,0.197,3.292-0.226,4.837-0.703c4.636-1.43,8.936-3.768,13.553-5.241
		c3.468-1.106,7.043-1.859,10.693-0.79c2.187,0.641,4.254,1.612,6.232,2.726c4.745,2.673,9.252,5.727,13.781,8.745
		c2.311,1.54,4.683,2.987,7.202,4.154c1.51,0.699,3.044,0.667,4.56-0.248c3.81-2.299,7.467-4.851,11.311-7.082
		c4.352-2.526,8.771-4.936,13.572-6.601c3.618-1.255,7.25-1.915,11.078-1.786c1.718,0.058,3.314,0.618,4.973,0.879
		c1.501,0.236,3.03,0.544,4.535,0.829c5.473,1.036,10.978,1.901,16.477,2.795c0.664,0.108,1.375,0.271,2.061-0.074
		c0.338-0.726,0.198-1.491,0.111-2.209c-0.465-3.855-0.823-7.738-1.949-11.475c-1.16-3.852-2.638-7.551-5.466-10.564
		c-1.566-1.669-3.518-2.45-5.695-2.842c-5.443-0.98-10.938-0.667-16.418-0.632c-4.54,0.029-9.08,0.096-13.61-0.211
		c-4.477-0.303-8.907-1.045-13.138-2.553c-5.199-1.854-9.17-5.264-12.05-10.009c-2.427-3.998-4.642-8.072-6.049-12.557
		c-1.207-3.846-1.838-7.775-1.323-11.771c0.522-4.054,2.353-7.514,5.344-10.381c2.21-2.119,4.442-4.223,6.084-6.881
		c1.894-3.067,1.793-6.062,0.139-9.136c-1.787-3.322-4.134-6.267-6.293-9.338c-0.912-1.297-1.749-2.632-2.425-4.075
		c-0.912-1.947-1.04-3.895-0.4-5.95c0.826-2.651,1.657-5.307,2.3-8.005c0.274-1.152,0.582-2.316,0.747-3.492
		c0.123-0.875,0.452-1.59,1.097-2.233c-0.431,2.098-0.424,4.221-0.483,6.336c-0.08,2.832-0.209,5.664,0.565,8.456
		c0.378,1.362,1.199,2.383,2.11,3.358c2.234,2.39,4.58,4.679,6.74,7.133c2.224,2.526,4.292,5.185,5.547,8.377
		c0.898,2.284,1.051,4.513,0.496,6.972c-0.997,4.416-3.472,7.928-6.143,11.391c-1.72,2.23-3.654,4.299-5.163,6.684
		c-1.508,2.383-2.673,4.883-2.31,7.85c0.199,1.632,0.892,3.06,1.678,4.433c2.405,4.197,5.616,7.651,9.846,10.059
		c2.377,1.353,4.984,2.164,7.628,2.827c5.992,1.504,12.129,1.674,18.251,1.807c6.083,0.133,12.171,0.232,18.218,0.859
		c4.084,0.423,7.92,1.677,10.852,4.895c1.55,1.702,2.534,3.689,3.187,5.808c1.594,5.169,2.764,10.453,4.031,15.712
		c0.901,3.739,1.862,7.476,3.378,11.05c0.922,2.173,2.386,3.657,4.419,4.754c4.804,2.59,9.62,5.163,14.849,6.796
		c2.969,0.928,5.967,1.744,9.087,2.141c5.641,0.718,11.322,0.802,16.971,1.303c4.956,0.439,9.888,1.242,14.51,3.235
		c5.933,2.558,10.597,6.643,14.092,12.06c2.908,4.506,5.371,9.218,6.778,14.441c1.505,5.587,1.953,11.243,1.421,16.993
		c-0.115,1.241-0.162,2.488-0.236,3.732c-0.282,4.78-1.167,9.45-2.319,14.096c-0.728,2.935-1.544,5.848-2.241,8.792
		c-0.638,2.693-1.446,5.345-2.136,8.027c-0.792,3.08-1.46,6.193-2.326,9.252c-0.592,2.09-1.076,4.211-1.585,6.313
		c-0.523,2.161-0.981,4.36-1.363,6.56c-0.851,4.905-1.728,9.807-2.041,14.791c-0.269,4.296-0.325,8.573,0.748,12.778
		c0.318,1.244,0.876,2.41,1.524,3.534c2.207,3.827,3.967,7.851,5.459,12.013c1.677,4.676,3.136,9.412,4.152,14.267
		c0.661,3.156,1.228,6.333,1.615,9.551c0.424,3.535,0.547,7.057,0.376,10.593c-0.247,5.113-1.588,9.78-4.941,13.888
		c-3.67,4.495-6.37,9.635-8.747,14.935c-1.777,3.962-3.602,7.905-5.98,11.563c-1.63,2.508-3.486,4.827-5.911,6.581
		c-3.054,2.209-5.558,4.931-7.679,7.991c-1.256,1.813-1.604,4.037-2.023,6.172c-0.565,2.872-1.003,5.751-1.732,8.609
		c-1.448,5.68-5.31,9.178-9.862,12.238c-4.85,3.262-10.189,5.523-15.676,7.394c-3.318,1.131-6.717,2.155-10.293,2.218
		c-1.343,0.024-2.631,0.436-3.998,0.418c-3.691-0.05-7.358-0.425-10.93-1.242c-3.857-0.882-7.65-2.067-11.403-3.365
		c-3.832-1.325-7.673-2.723-11.708-3.272c-5.277-0.718-10.374-0.13-15.169,2.467c-3.87,2.096-7.911,3.876-12.082,5.272
		c-3.477,1.164-6.989,2.374-10.76,2.195c-0.49-0.023-1.002,0.078-1.506-0.286c0.244-0.549,0.732-0.739,1.251-0.882
		c5.852-1.618,10.695-4.888,14.836-9.228c3.384-3.547,7.344-6.183,11.964-7.752c3.114-1.057,6.366-1.57,9.665-1.591
		c1.01-0.006,1.951-0.356,2.958-0.354c3.839,0.005,7.662,0.382,11.479,0.655c5.36,0.383,10.704,0.95,16.081,1.187
		c4.692,0.207,9.375,0.224,14.046-0.172c3.169-0.268,6.337-0.836,9.118-2.485c2.394-1.42,4.132-3.332,3.974-6.469
		c-0.163-3.233,0.897-6.275,1.906-9.292c1.739-5.201,4.469-9.821,8.459-13.606c2.871-2.724,6.069-5.068,9.184-7.507
		c1.707-1.337,3.294-2.824,4.587-4.601c1.691-2.323,2.498-4.897,2.632-7.766c0.196-4.218-0.768-8.319-1.079-12.484
		c-0.335-4.495-0.085-8.913,0.82-13.35c1.264-6.201,3.723-11.992,5.682-17.956c1.278-3.892,2.658-7.783,2.786-11.969
		c0.083-2.702-0.121-5.358-0.551-8.024c-0.284-1.763-0.653-3.511-0.898-5.285c-0.317-2.296-0.917-4.559-1.488-6.812
		c-0.939-3.707-1.885-7.415-2.956-11.085c-0.712-2.439-1.166-4.942-1.541-7.42c-0.592-3.914-1.001-7.849-0.518-11.881
		c0.706-5.888,3.269-11.08,5.505-16.401c1.936-4.607,3.983-9.163,5.737-13.851c1.938-5.18,3.417-10.458,4.175-15.932
		c0.259-1.871,0.512-3.796,0.43-5.645c-0.163-3.661-0.452-7.344-1.745-10.858c-2.165-5.883-5.292-11.138-9.849-15.488
		c-2.999-2.863-6.425-4.782-10.585-5.613c-3.586-0.716-6.927-0.118-10.254,0.903c-3.95,1.213-7.226,3.461-9.43,7.05
		c-1.589,2.587-2.657,5.411-3.428,8.333c-1.647,6.234-2.11,12.638-2.723,19.027c-0.191,1.991-0.532,4.006-1.426,5.89
		c-1.352,2.851-3.854,4.145-6.583,5.154c-3.578,1.322-7.319,2.196-10.773,3.863c-2.549,1.23-4.741,2.861-5.892,5.569
		c-0.606,1.428-0.941,2.941-0.982,4.481c-0.047,1.792-0.099,3.59,0.079,5.384c0.047,0.47,0.158,1.017-0.472,1.346
		c-0.671-0.699-0.601-1.686-0.772-2.495c-0.771-3.655-0.899-7.32,0.773-10.814c1.501-3.138,4.021-5.221,7.108-6.68
		c3.005-1.42,6.194-2.306,9.401-3.111c1.887-0.474,3.2-1.602,3.856-3.357c2.061-5.513,3.247-11.203,2.642-17.111
		c-0.434-4.239-0.521-8.434,0.017-12.675c0.571-4.5,2.522-7.861,6.686-9.962c3.565-1.799,7.088-3.68,10.805-5.303
		c-0.227-0.608-0.736-0.475-1.123-0.466c-4.94,0.118-9.858-0.497-14.786-0.495c-4.856,0.002-9.322-1.271-13.641-3.307
		c-4.828-2.275-9.655-4.552-14.477-6.839c-1.732-0.821-3.453-1.664-5.172-2.511c-2.904-1.43-6.063-1.957-9.205-2.409
		c-6.131-0.882-12.31-1.149-18.495-0.746c-3.974,0.258-7.393,2.027-10.707,4.127c-5.561,3.524-10.973,7.268-16.18,11.276
		c-4.917,3.784-9.848,7.599-13.87,12.41c-1.32,1.579-2.012,3.522-3.165,5.198c-2.239,3.251-4.663,6.391-6.392,9.966
		c-0.773,1.598-1.402,3.237-1.606,5.054c-0.294,2.607,0.437,4.897,2.11,6.758c2.101,2.336,3.649,4.965,4.561,7.902
		c1.232,3.966,1.156,7.937-0.86,11.715c-1.096,2.054-2.991,3.086-5.022,3.949c-1.872,0.795-3.666,1.748-5.409,2.786
		c-2.227,1.325-3.592,3.317-4.203,5.83c-0.056,0.23-0.038,0.502-0.334,0.597c-1.661-3.638-1.176-7.838,2.956-10.259
		c2.397-1.404,4.607-3.059,6.522-5.103c1.71-1.825,1.962-3.822,1.253-6.175c-1.109-3.682-2.691-7.122-4.705-10.382
		c-1.022-1.655-2.251-3.13-3.742-4.383c-1.715-1.442-4.414-1.3-5.867,0.516c-1.229,1.537-2.413,3.119-4.082,4.252
		c-2.938,1.995-6.17,2.882-9.709,2.852c-2.934-0.026-5.876-0.091-8.773,0.569c-1.396,0.318-2.468,1.217-2.598,2.497
		c-0.332,3.271-2.32,5.401-4.874,7.094c-2.603,1.725-5.465,2.785-8.63,2.896c-1.163,0.041-2.189-0.489-3.325-0.691
		c1.184-1.055,2.712-1.147,4.044-1.702c2.022-0.843,4.001-1.726,5.71-3.129c1.446-1.187,2.185-2.741,2.584-4.544
		c0.529-2.392,1.717-4.501,3.605-6.032c1.81-1.468,3.978-2.103,6.382-1.693c1.598,0.272,3.187-0.201,4.716-0.501
		c1.976-0.388,3.882-1.178,5.544-2.439c1.492-1.132,2.487-2.46,2.568-4.437c0.061-1.467,0.851-2.74,1.631-3.94
		c2.467-3.79,5.489-7.021,9.476-9.279c1.836-1.04,3.183-2.67,4.566-4.207c4.004-4.447,7.839-9.042,11.508-13.771
		c1.35-1.74,2.302-3.69,3.027-5.799c-0.094-0.614-0.62-0.796-1.119-1.031c-5.024-2.364-9.823-5.146-14.664-7.852
		c-1.971-1.102-4.008-2.077-6.121-2.921c-3.137-1.253-6.238-0.977-9.383-0.266c-2.946,0.665-5.881,1.324-8.898,1.668
		c-2.454,0.28-4.864,0.965-7.285,1.511c-3.445,0.777-6.85,1.678-10.433,1.743c-5.029,0.091-8.566-2.228-10.862-6.494
		c-2.709-5.034-5.084-10.243-7.697-15.326c-2.259-4.394-4.702-8.708-8.307-12.224c-1.736-1.693-3.872-2.73-5.978-3.766
		c-3.394-1.669-6.447-3.847-9.525-5.991c-2.884-2.008-5.537-4.318-8.2-6.607c-0.338-0.29-0.944-0.51-0.66-1.182L159.624,219.903z"/>
	<path d="M692.712,234.878c-0.171,0.918-0.84,1.344-1.344,1.862c-3.248,3.343-5.527,7.277-7.482,11.488
		c-2.526,5.44-5.979,10.251-10.668,14.101c-2.449,2.011-5.33,3.223-8.153,4.533c-5.508,2.555-10.994,5.149-16.395,7.925
		c-4.458,2.291-8.508,5.225-12.742,7.872c-3.275,2.048-6.563,4.063-9.638,6.41c-1.106,0.844-2.073,1.825-3.041,2.807
		c-1.377,1.398-1.729,3.264-1.834,5.069c-0.142,2.423-0.136,4.852,0.296,7.298c0.459,2.599,0.953,5.146,1.97,7.596
		c0.387,0.933,0.102,1.945-0.197,2.926c-0.371,1.216-1.049,2.37-0.923,3.744c0.756,1.084,1.926,1.354,3.103,1.421
		c2.602,0.149,5.136-0.478,7.695-0.822c2.801-0.377,5.473-1.389,8.311-1.614c2.344-0.186,4.266,0.427,5.848,2.249
		c2.182,2.515,3.71,5.352,4.607,8.541c0.13,0.461,0.282,0.962-0.084,1.54c-0.448-0.41-0.741-0.888-1.089-1.343
		c-2.911-3.81-6.432-4.375-10.589-3.088c-2.366,0.732-4.742,1.445-7.141,2.059c-3.518,0.901-7.072,1.714-10.74,1.419
		c-2.864-0.23-5.02-1.371-5.74-4.261c-0.219-0.881-0.523-1.791-0.857-2.671c-0.705-1.858-1.676-3.59-2.429-5.424
		c-0.434-1.057-0.64-2.103-0.509-3.198c0.242-2.031-0.602-3.93-0.638-5.923c-0.009-0.476-0.431-0.755-0.812-1.109
		c-3.041-0.148-6.15-0.3-9.215,0.015c-4.929,0.506-9.626,1.875-13.743,4.797c-2.608,1.851-4.399,4.367-5.809,7.187
		c-1.746,3.493-3.4,7.036-5.251,10.473c-2.544,4.724-6.326,8.158-11.257,10.343c-5.005,2.217-10.189,3.875-15.572,4.798
		c-3.528,0.605-7.104,0.902-10.704,1.004c-4.813,0.137-9.41,1.243-13.594,3.793c-2.928,1.784-5.618,3.869-8.204,6.107
		c-4.523,3.915-9.442,7.135-15.196,9.024c-2.233,0.733-4.495,1.597-5.984,3.684c-1.087,1.523-1.723,3.232-2.189,4.99
		c-0.878,3.314-2.059,6.492-3.519,9.597c-3.265,6.943-7.008,13.653-10.035,20.711c-1.51,3.521-2.806,7.136-3.417,10.903
		c-0.475,2.926-0.486,5.907,0.269,8.891c0.681,2.69,1.288,5.403,2.033,8.08c0.759,2.726,1.555,5.441,2.333,8.161
		c1.171,4.095,2.232,8.207,2.925,12.425c0.698,4.244,0.458,8.557,1.193,12.786c0.239,1.373,0.456,2.751,0.711,4.121
		c0.382,2.05,0.644,4.137,1.225,6.131c0.663,2.276,1.215,4.581,1.9,6.849c1.491,4.938,3.311,9.753,5.566,14.388
		c1.651,3.393,3.771,6.493,6.539,9.102c1.61,1.518,3.658,2.098,5.718,2.697c3.845,1.118,7.657,2.346,11.499,3.474
		c2.769,0.813,5.574,1.425,8.454,1.793c4.796,0.613,9.593,1.096,14.429,1.088c3.441-0.005,6.909,0.191,10.317-0.163
		c5.63-0.584,11.254-0.429,16.881-0.36c2.725,0.033,5.421,0.507,8.111,1.046c3.286,0.659,6.433,1.606,9.439,3.099
		c2.679,1.331,4.964,3.219,7.378,4.93c3.625,2.57,7.111,5.348,11.088,7.395c1.986,1.022,4.131,1.611,6.241,2.265
		c3.143,0.974,6.432,1.306,9.668,1.834c1.608,0.262,3.283,0.132,4.928,0.146c7.136,0.06,14.273-0.014,21.383-0.625
		c3.918-0.337,7.86-0.489,11.749-1.155c0.537-0.092,1.094-0.087,1.642-0.085c4.296,0.018,8.572-0.451,12.828-0.853
		c4.871-0.46,9.713-0.822,14.602-0.596c1.548,0.072,2.99,0.383,4.551,1.11c-0.586,0.427-1.082,0.298-1.546,0.294
		c-5.034-0.041-10.054-0.042-15.084,0.495c-3.214,0.344-6.449,0.625-9.675,0.914c-3.613,0.323-7.205,0.862-10.749,1.685
		c-1.255,0.291-2.561,0.421-3.83,0.561c-1.88,0.208-3.719,0.633-5.576,0.916c-3.096,0.473-6.202,0.87-9.301,1.319
		c-5.289,0.766-10.59,1.224-15.941,1.177c-3.502-0.031-6.95-0.592-10.427-0.86c-2.65-0.205-4.804-1.725-6.894-3.242
		c-4.122-2.992-8.272-5.938-12.799-8.304c-3.205-1.675-6.557-2.978-9.987-4.134c-3.415-1.151-6.919-1.894-10.454-2.387
		c-3.089-0.431-6.199-0.872-9.352-0.784c-3.39,0.095-6.797-0.133-10.172,0.113c-3.463,0.252-6.933,0.487-10.392,0.893
		c-2.914,0.342-5.843,0.641-8.766,0.938c-3.074,0.313-6.135,0.744-9.208,1.065c-3.325,0.347-6.667,0.347-10.006,0.449
		c-5.189,0.159-10.257-0.523-15.115-2.283c-4.929-1.785-9.802-3.751-13.774-7.385c-2.665-2.438-4.071-5.495-4.886-8.949
		c-0.835-3.536-0.76-7.129-0.839-10.704c-0.075-3.39-0.115-6.797-0.472-10.149c-0.328-3.083-0.909-6.166-1.576-9.227
		c-0.841-3.858-1.981-7.61-3.494-11.217c-0.817-1.947-1.282-3.812-1.158-5.887c0.079-1.316,0.612-2.505,0.908-3.758
		c0.482-2.036,0.954-4.054,1.047-6.162c0.206-4.625-1.233-8.813-3.345-12.804c-3.061-5.784-6.024-11.617-8.494-17.676
		c-1.19-2.92-2.036-5.98-2.736-9.075c-0.932-4.122-1.056-8.268-0.861-12.471c0.155-3.333-0.28-6.668-0.27-10.012
		c0.014-4.595,0.275-9.179,0.757-13.735c0.485-4.586,1.404-9.131,3.017-13.469c0.983-2.644,2.632-4.99,3.926-7.498
		c1.953-3.787,3.664-7.681,4.93-11.76c0.717-2.312,1.539-4.591,1.928-6.998c0.081-0.505,0.3-1.045,0.766-1.541
		c0.377,0.508,0.296,1.05,0.294,1.553c-0.019,4.04,0.133,8.093-0.133,12.117c-0.281,4.265-0.281,8.58-1.203,12.776
		c-0.478,2.173-1.016,4.341-1.446,6.524c-0.49,2.488-0.892,5.003-0.969,7.55c-0.01,0.324-0.097,0.713,0.376,0.946
		c0.748-0.601,0.997-1.542,1.384-2.342c2.785-5.768,6.171-11.171,10.051-16.243c2.614-3.418,5.521-6.602,9.262-8.894
		c2.337-1.432,4.876-2.085,7.568-2.479c2.451-0.359,4.918-0.61,7.366-1.021c1.949-0.327,3.941-0.553,5.892-0.869
		c4.568-0.741,9.172-1.262,13.708-2.203c2.577-0.534,5.165-1.011,7.739-1.56c4.653-0.994,9.221-2.282,13.638-4.076
		c5.408-2.197,9.285-6.275,12.946-10.587c3.777-4.45,7.209-9.184,11.004-13.622c3.318-3.88,7.381-6.624,12.194-8.35
		c4.514-1.619,9.131-2.678,13.88-3.321c2.833-0.383,5.664-0.976,8.384-1.885c2.504-0.837,4.149-2.824,5.674-4.858
		c1.491-1.989,3.069-3.883,4.994-5.474c2.593-2.143,5.561-3.589,8.698-4.71c4.388-1.568,8.956-2.605,13.233-4.505
		c0.865-0.385,1.675-0.865,2.439-1.401c1.046-0.733,1.318-1.678,0.912-2.894c-0.666-1.997-1.697-3.76-3.293-5.187
		c-2.76-2.468-5.643-4.803-8.155-7.539c-0.365-0.397-0.735-0.791-1.076-1.209c-1.19-1.455-1.366-2.788-0.186-4.515
		c1.913-2.799,2.947-6.058,3.964-9.278c0.254-0.804,0.786-1.487,0.994-2.392c1.65,1.943,1.58,4.409,1.882,6.691
		c0.342,2.587-0.979,4.666-3,6.575c5.974,3.169,10.605,7.584,14.272,13.031c1.703-0.571,3.131-1.481,4.702-2.087
		c2.316-0.892,4.705-1.536,7.069-2.243c4.14-1.239,7.842-3.239,11.273-5.811c3.138-2.353,5.693-5.201,7.463-8.721
		c0.577-1.148,0.938-2.387,1.381-3.583c1.316-3.55,4.029-5.662,7.185-7.369c1.532-0.828,3.216-1.267,4.88-1.731
		C691.34,234.669,692.001,234.488,692.712,234.878z"/>
	<path d="M436.274,312.59c1.377,0.938,1.584,2.287,2.107,3.399c1.822,3.869,3.218,7.914,4.336,12.029
		c1.119,4.116,2.156,8.28,2.148,12.599c-0.002,1.249,0.464,2.422,0.396,3.693c-0.199,3.726-0.374,7.462-1.243,11.096
		c-0.644,2.692-1.761,5.25-2.698,7.857c-1.257,3.498-2.325,7.04-3.013,10.713c-0.524,2.8-0.89,5.614-0.945,8.433
		c-0.061,3.075,0.453,6.133,0.864,9.193c0.484,3.601,1.4,7.1,2.13,10.642c0.621,3.015,1.469,5.982,2.193,8.977
		c0.804,3.324,1.678,6.631,2.292,10.001c0.436,2.392,0.967,4.765,1.335,7.173c0.814,5.336,1.446,10.661,0.471,16.054
		c-0.343,1.899-1.193,3.569-2.018,5.257c-0.976,1.996-2.045,3.947-3.053,5.928c-0.246,0.483-0.484,0.941-0.986,1.203
		c-0.442-0.431-0.254-0.905-0.239-1.326c0.147-4.047-0.127-8.075-0.714-12.069c-1.014-6.903-3.102-13.476-5.935-19.872
		c-2.212-4.995-5.046-9.641-7.461-14.516c-1.551-3.131-2.409-6.391-2.525-9.881c-0.084-2.537-0.58-5.055-0.425-7.605
		c0.287-4.724,0.682-9.432,1.724-14.069c0.729-3.244,1.535-6.46,2.545-9.631c1.161-3.646,2.665-7.147,4.216-10.635
		c1.146-2.576,1.989-5.262,2.795-7.958c1.76-5.886,2.103-11.926,2.068-18.028C436.607,325.121,436.502,318.997,436.274,312.59z"/>
	<path d="M465.048,537.498c-1.622,0.173-3.056-0.273-4.369-0.709c-6.626-2.202-13.366-3.343-20.352-2.702
		c-1.337,0.123-2.663,0.36-3.993,0.556c-0.544,0.08-1.085,0.21-1.581-0.177c-0.818-2.999-1.54-6.029-2.574-8.968
		c-0.642-1.825-1.43-3.586-2.371-5.279c-1.346-2.422-2.363-4.979-1.993-7.791c0.303-2.307,1.096-4.511,2.051-6.652
		c0.786-1.762,1.753-3.433,2.445-5.246c0.503-1.318,0.786-2.685,0.98-4.034c0.438-3.051,0.776-6.125,0.615-9.228
		c-0.064-1.242,0.011-2.492,0.019-3.738c0.019-2.76,1.153-5.224,2.193-7.675c1.06-2.497,2.398-4.875,3.605-7.311
		c0.202-0.408,0.463-0.739,0.825-1.012c1.084,0.594,1.508,1.639,2.076,2.534c2.006,3.163,3.694,6.514,5.926,9.55
		c1.32,1.795,1.774,4.054,2.422,6.17c1.004,3.279,1.839,6.606,2.563,9.96c0.892,4.134,0.982,8.326,0.568,12.492
		c-0.355,3.579-0.288,7.171-0.624,10.738c-0.245,2.6,0.003,5.153,0.216,7.725c0.115,1.387,0.68,2.553,1.561,3.608
		c2.304,2.761,5.29,4.572,8.49,6.064C464.257,536.611,464.734,536.773,465.048,537.498z"/>
	<path d="M436.903,467.215c-1.248,1.517-1.78,3.406-2.628,5.128c-1.748,3.551-3.338,7.179-4.607,10.931
		c-0.554,1.639-0.341,3.396-0.094,5.05c0.438,2.93-0.14,5.6-1.341,8.241c-1.828,4.02-3.355,8.15-4.541,12.417
		c-0.737,2.65-1.263,5.286-1.112,8.046c0.065,1.176,0.494,2.182,1.06,3.187c2.11,3.746,4.44,7.374,6.146,11.338
		c1.498,3.481,2.377,7.06,1.716,10.89c-0.123,0.712-0.371,1.305-0.918,1.852c-0.463-0.504-0.424-1.074-0.494-1.587
		c-0.88-6.449-5.795-9.995-11.956-10.179c-2.775-0.083-5.323,0.668-7.86,1.534c-2.069,0.706-4.215,1.084-6.311,1.666
		c-2.044,0.567-4.1,1.091-6.125,1.726c-0.376,0.118-0.755,0.267-1.151,0.096c-0.333-0.338-0.115-0.709,0.004-0.982
		c1.128-2.588,2.032-5.256,2.809-7.964c0.545-1.899,1.014-3.821,1.473-5.743c0.101-0.424,0.125-0.926,0-1.336
		c-0.69-2.272,0.185-4.242,1.322-6.043c1.986-3.147,4.556-5.767,7.522-8.061c5.365-4.149,9.921-9.052,13.096-15.118
		c0.836-1.598,1.473-3.312,1.476-5.115c0.007-4.178,1.623-7.755,4.093-10.938c2.454-3.163,5.247-6.058,7.628-9.19
		c0.358-0.089,0.569,0.064,0.796,0.155L436.903,467.215z"/>
	<path d="M570.201,239.348c1.134,6.254,1.577,12.367-2.393,17.724c-2.216,2.99-5.28,5.103-9.042,5.935
		c-0.479,0.106-0.986,0.207-1.588-0.21c-0.604-3.347,0.291-6.744,0.715-10.299c-4.37,0.633-8.444,0.952-12.51-1.067
		c1.906-3.653,4.544-6.533,7.873-8.788C558.362,239.186,564.061,238.651,570.201,239.348z"/>
	<path d="M654.679,315.297c-8.845-7.945-10.368-19.933-6.361-28.893c0.381-0.203,0.682,0.011,0.954,0.222
		c4.462,3.457,8.032,7.594,9.565,13.152c0.67,2.43,0.62,4.964,0.09,7.42c-0.613,2.842-1.798,5.464-3.643,7.75
		C655.159,315.103,655.038,315.268,654.679,315.297z"/>
	<path d="M581.308,265.359c-4.678-9.643-1.233-18.045,6.544-20.917c0.656,1.299,0.697,2.764,0.979,4.145
		c0.273,1.339-0.155,2.767,0.32,4.284c1.75-0.06,3.19-1.127,4.9-1.169c1.642-0.04,3.252-0.116,4.855,0.246
		C598.425,258.174,589.703,266.407,581.308,265.359z"/>
	<path d="M237.537,253.248c-0.716-2.595-1.563-5.12-1.327-7.783c0.458-5.161,2.597-8.92,7.734-11.287
		c0.538-0.248,1.069-0.818,1.862-0.47c0.447,1.235,0.66,2.529,0.736,3.888c0.075,1.342-0.737,2.594-0.401,3.89
		c0.887,0.623,1.648,0.144,2.395-0.005c2.49-0.496,4.923-0.374,7.335,0.452C253.235,249.725,244.99,253.706,237.537,253.248z"/>
	<path d="M403.989,267.601c-7.561,1.851-16.628-0.952-18.262-10.681c0.887-0.91,2.019-0.641,3.025-0.373
		c1.346,0.359,2.78,0.281,4.071,0.893c0.366,0.173,0.784,0.087,1.336-0.374c-0.006-2.936-0.425-6.168,1.419-8.997
		C402.097,251.157,406.345,260.462,403.989,267.601z"/>
	<path d="M369.405,108.59c-1.925,0.047-3.862,0.116-5.852-0.345c-1.967-0.456-3.831-1.003-5.514-2.133
		c-2.653-1.781-4.308-4.22-4.892-7.363c-0.184-0.993-0.872-1.943-0.285-3.127c2.82-0.566,5.205,1.255,7.709,1.677
		c0.828-0.576,0.637-1.282,0.63-1.898c-0.024-2.152,0.631-4.121,1.526-6.036c0.235-0.502,0.544-0.932,1.003-1.222
		C370.507,93.212,372.246,102.617,369.405,108.59z"/>
	<path d="M285.83,251.172c2.242-1.648,4.919-2.131,7.459-2.638c0.392-0.858-0.148-1.288-0.455-1.761
		c-1.124-1.731-1.937-3.58-2.197-5.639c-0.068-0.537-0.106-1.096,0.194-1.786c2.019-0.512,3.915,0.304,5.757,1.051
		c5.548,2.251,8.912,6.465,10.581,12.13C300.988,258.413,290.214,258.704,285.83,251.172z"/>
	<path d="M416.619,121.838c7.656,3.206,13.15,18.242,9.394,25.921c-1.822-0.671-3.391-1.82-4.855-3.012
		c-2.677-2.181-4.91-4.775-6.208-8.059c-1.286-3.253-1.394-6.551-0.544-9.926c0.341-1.355,0.747-2.67,1.394-3.908
		C416.007,122.458,416.192,122.047,416.619,121.838z"/>
	<path d="M254.245,340.04c-2.405,0.463-4.456,0.102-6.534-0.074c-2.107-0.179-3.812-1.531-6.087-2.012
		c0.128,4.033,0.012,7.771-2.093,11.117c-6.421-4.592-8.621-13.993-2.004-20.322C245.471,328.868,250.982,332.55,254.245,340.04z"/>
	<path d="M510.357,115.426c7.36-7.595,19.477-8.985,27.527-4.396c0.081,0.275-0.048,0.508-0.216,0.68
		c-2.961,3.036-5.946,6.08-10.12,7.421c-6.143,1.975-11.75,0.804-16.808-3.146C510.593,115.87,510.517,115.664,510.357,115.426z"/>
	<path d="M500.465,266.558c-3.531,4.223-7.12,7.831-12.417,9.2c-5.115,1.322-9.715,0.115-14.007-2.724
		c-0.163-0.108-0.304-0.26-0.429-0.413c-0.091-0.11-0.139-0.256-0.292-0.551c3.685-3.873,8.154-6.364,13.435-7.309
		C491.402,263.929,495.893,264.563,500.465,266.558z"/>
	<path d="M667.876,235.54c0.322,1.818-0.272,3.467-0.596,5.094c-0.976,4.913-3.286,9.074-7.625,11.844
		c-3.302,2.108-6.934,2.804-10.782,2.387C647.608,247.572,660.483,234.503,667.876,235.54z"/>
	<path d="M546.906,350.741c-0.18,7.494-13.977,17.429-22.063,15.897c0.28-1.967,0.945-3.819,1.738-5.62
		c1.813-4.118,4.436-7.588,8.638-9.462C538.972,349.881,542.9,349.308,546.906,350.741z"/>
	<path d="M537.983,219.042c-1.129,5.724-3.968,10.437-8.581,13.987c-3.286,2.529-7.061,4.051-11.024,4.624
		c-0.459-0.483-0.457-0.779-0.412-1.081c0.666-4.424,1.837-8.668,4.703-12.23c2.193-2.725,5.09-4.425,8.469-5.22
		c1.687-0.397,3.415-0.72,5.18-0.567C536.808,218.598,537.323,218.494,537.983,219.042z"/>
	<path d="M490.114,286.627c-7.74,4.281-20.995,4.431-26.107-8.202c3.412-1.485,7.011-1.483,10.542-1.111
		C480.756,277.966,488.359,282.674,490.114,286.627z"/>
	<path d="M521.823,311.384c-3.767,4.721-7.845,8.547-13.733,9.581c-4.961,0.871-9.424-0.555-13.571-3.801
		c2.696-2.863,5.708-5.024,9.291-6.327C509.776,308.666,515.684,309.025,521.823,311.384z"/>
	<path d="M501.436,304.903c-1.261,0.763-2.562,1.087-3.845,1.449c-3.845,1.086-7.723,1.528-11.634,0.384
		c-4.666-1.365-7.935-4.386-10.037-8.708c-0.222-0.457-0.677-0.901-0.472-1.512C484.119,293.469,495.786,296.293,501.436,304.903z"
		/>
	<path d="M585.825,213.909c-0.729,1.385-1.883,2.274-2.965,3.189c-3.731,3.155-7.856,5.44-12.93,5.334
		c-3.98-0.083-7.429-1.614-10.503-4.069c-0.224-0.179-0.495-0.356-0.511-0.701C562.411,211.412,579.495,208.95,585.825,213.909z"/>
	<path d="M571.406,278.052c-0.111,1.38-0.662,2.517-1.143,3.641c-2.038,4.771-5.065,8.637-10.031,10.696
		c-3.064,1.27-8.361,1.356-11.397,0.091c-0.325-0.476-0.162-0.938,0.068-1.396c2.948-5.882,7.459-9.995,13.74-12.077
		c2.324-0.77,4.754-0.955,7.175-1.155C570.306,277.813,570.812,277.789,571.406,278.052z"/>
	<path d="M562.694,208.35c-11.473-1.065-19.035-10.188-19.86-17.507c1.29-0.35,2.551,0.091,3.821,0.162
		c3.144,0.175,6.072,1.158,8.773,2.683c3.456,1.952,5.781,4.866,6.982,8.72c0.473,1.517,0.56,3.014,0.594,4.549
		C563.014,207.436,563.125,207.964,562.694,208.35z"/>
	<path d="M193.135,284.412c4.267-6.76,14.423-8.67,19.708-5.816c0.162,8.61-5.843,14.932-13.524,13.949
		c-0.431-2.058,1.226-3.781,1.126-5.944C197.807,286.42,195.317,286.065,193.135,284.412z"/>
	<path d="M344.385,173.104c1.658,7.662-1.357,15.21-7.937,18.906c-0.87-1.57-0.689-3.457-1.41-5.104
		c-1.841-0.186-3.237,1.251-5.212,1.044c0.021-4.009,0.958-7.66,3.613-10.808C336.324,173.723,340.149,173.008,344.385,173.104z"/>
	<path d="M508.893,107.804c-0.366,6.679-6.124,16.158-16.723,18.282c-1.286-2.439,0.76-9.541,3.742-13.354
		C498.667,109.21,505.138,106.738,508.893,107.804z"/>
	<path d="M283.638,133.069c0.886,3.909-0.527,7.406-2.036,10.793c0.646,0.678,1.184,0.375,1.766,0.231
		c3.697-0.916,7.065-0.273,10.009,2.226c0.066,0.056,0.075,0.179,0.125,0.308c-0.068,0.724-0.694,1.019-1.21,1.367
		c-2.998,2.024-6.253,3.288-9.931,3.005c-2.035-0.156-3.991-0.748-5.875-1.553c-0.501-0.214-0.845-0.587-0.903-1.106
		c-0.364-3.26-0.87-6.559,0.597-9.679c1.214-2.583,3.214-4.373,5.999-5.193C282.56,133.357,282.854,133.027,283.638,133.069z"/>
	<path d="M258.076,181.93c1.805-3.693,4.695-5.91,8.063-7.527c-0.019-0.81-0.503-1.015-1.048-1.193
		c-3.263-1.066-5.268-3.427-6.589-6.469c-0.238-0.548-0.358-1.142-0.07-1.696c0.251-0.262,0.539-0.334,0.844-0.329
		c5.778,0.104,10.952,2.165,14.13,7.817c0.346,0.615,0.526,1.215,0.246,1.839c-1.635,3.638-3.815,6.768-7.879,8.011
		C263.258,183.153,260.779,182.977,258.076,181.93z"/>
	<path d="M325.011,132.579c-1.482-3.61-0.949-7.234-0.337-10.939c-2.19,0.53-3.94,1.743-6.128,1.674
		c-2.141-0.067-4.131-0.438-5.989-1.457c-0.205-0.764,0.334-1.154,0.725-1.564c2.916-3.062,6.329-5.109,10.709-5.086
		c1.394,0.007,2.788,0.069,4.181,0.124c0.752,0.03,1.368,0.344,1.672,1.06c1.121,2.638,1.97,5.348,1.602,8.261
		c-0.417,3.304-2.03,5.882-4.91,7.621C326.084,132.546,326.08,132.539,325.011,132.579z"/>
	<path d="M347.568,303.835c8.528,0.003,17.39,8.101,17.987,16.079c-4.898,0.175-9.347-1.047-13.085-4.168
		C348.851,312.724,347.585,308.57,347.568,303.835z"/>
	<path d="M356.669,285.966c7.579,3.58,11.643,15.436,8.65,22.555c-4.906-2.826-9.127-6.138-10.454-12.066
		C354.106,293.059,354.719,288.916,356.669,285.966z"/>
	<path d="M266.921,218.526c0.263,0.3,0.376,0.368,0.385,0.448c0.598,5.495,0.216,10.769-3.737,15.118
		c-2.258,2.484-5.191,3.766-8.453,4.352c-0.193,0.035-0.399,0.025-0.595,0.002c-0.142-0.017-0.278-0.092-0.636-0.22
		c-0.054-3.89,0.817-7.607,2.801-11C259.067,223.156,262.523,220.287,266.921,218.526z"/>
	<path d="M611.251,133.567c6.687,4.738,8.75,16.534,4.741,23.113c-3.006-2.366-5.603-4.997-7.164-8.561
		c-2.138-4.881-1.152-9.407,1.414-13.781C610.43,134.018,610.662,133.645,611.251,133.567z"/>
	<path d="M347.668,147.814c6.967-4.098,18.369-2.797,23.707,3.344c-0.925,0.996-2.161,1.465-3.36,2.006
		c-2.66,1.201-5.388,1.955-8.361,1.873c-5.16-0.143-8.978-2.515-11.785-6.719C347.789,148.2,347.759,148.048,347.668,147.814z"/>
	<path d="M321.694,193.227c6.592,5.728,8.563,15.448,5.002,23.602c-3.876-2.935-7.066-6.281-8.146-11.116
		C317.523,201.117,318.799,197.014,321.694,193.227z"/>
	<path d="M597.508,347.574c-7.938,1.229-17.726-4.893-19.695-12.089c2.127-0.405,4.185-1.124,6.408-0.409
		c1.223,0.393,2.54,0.323,3.804,0.709c4.75,1.453,7.597,4.692,9.085,9.29c0.198,0.612,0.553,1.185,0.525,1.858
		C597.627,347.124,597.561,347.315,597.508,347.574z"/>
	<path d="M612.118,352.281c-8.069-1.593-14.633-10.882-13.942-18.306c1.225-0.138,2.32,0.414,3.398,0.809
		c3.643,1.333,7.055,3.073,9.097,6.597c1.898,3.277,2.912,6.739,1.664,10.534C612.291,352.049,612.188,352.164,612.118,352.281z"/>
	<path d="M682.931,257.746c0.461-0.573,0.924-0.617,1.362-0.667c4.351-0.494,8.57-0.122,12.384,2.234
		c3.359,2.076,5.207,5.231,6.009,9.039c0.09,0.426,0.169,0.891-0.299,1.517c-3.515-0.196-7.094-0.62-10.416-2.386
		C687.824,265.276,684.874,261.998,682.931,257.746z"/>
	<path d="M319.736,347.973c7.403-3.762,17.444-1.891,22.765,4.385c-1.131,1.196-2.682,1.643-4.148,2.113
		c-1.168,0.374-2.375,0.691-3.582,0.978c-6.29,1.496-11.947-2.065-14.858-6.5C319.708,348.639,319.613,348.33,319.736,347.973z"/>
	<path d="M382.43,303.486c8.205,5.231,11.196,14.86,5.011,22.312C381.008,321.709,378.324,309.478,382.43,303.486z"/>
	<path d="M345.604,360.849c2.149,2.813,3.627,5.637,4.211,8.883c0.14,0.779,0.535,1.482,0.516,2.317
		c-0.098,4.296-1.706,7.9-4.849,10.821c-0.435,0.404-0.901,0.774-1.362,1.149c-0.07,0.057-0.185,0.057-0.542,0.156
		c-2.045-3.105-2.826-6.677-2.817-10.323C340.773,369.089,342.17,364.69,345.604,360.849z"/>
	<path d="M372.796,335.745c8.411,5.706,10.448,16.064,4.232,22.719C371.35,355.228,368.674,341.137,372.796,335.745z"/>
	<path d="M684.891,283.624c-5.604-0.027-10.641-1.237-14.783-5.069c-2.206-2.041-4.162-4.256-5.069-7.43
		c6.472-0.601,12.43-0.503,16.886,4.858c1.629,1.96,2.503,4.257,3.055,6.701C685.031,282.91,684.939,283.167,684.891,283.624z"/>
	<path d="M628.42,354.178c-4.453-2.477-8.406-5.263-9.991-10.247c-1.252-3.937-0.767-7.806,1.1-11.528
		C626.559,336.044,630.875,345.774,628.42,354.178z"/>
	<path d="M575.506,124.967c1.659-0.227,3.166,0.28,4.644,0.56c3.486,0.659,6.66,2.06,9.014,4.875c1.421,1.7,2.407,3.609,2.873,5.809
		c0.319,1.506,0.779,2.971,0.337,4.498C586.225,142.056,575.157,131.807,575.506,124.967z"/>
	<path d="M367.184,366.659c-6.396,0.345-15.716-11.165-14.475-17.757C361.221,349.459,369.18,356.056,367.184,366.659z"/>
	<path d="M684.341,303.255c-1.36,0.597-2.323-0.15-3.228-0.637c-4.648-2.504-8.262-5.993-10.039-11.104
		c-0.714-2.055-1.194-4.159-1.054-6.472c2.04,0.285,3.867,0.951,5.588,1.741c3.404,1.562,6.269,3.798,7.881,7.355
		C684.842,297.122,684.627,300.197,684.341,303.255z"/>
	<path d="M701.898,289.604c-7.697-1.349-14.658-10.816-13.939-18.149C697.343,272.489,704.576,280.003,701.898,289.604z"/>
	<path d="M663.384,298.92c-7.271-6.811-7.97-16.97-4.684-22.729c3.783,2.716,6.753,5.989,7.904,10.557
		C667.693,291.068,666.074,296.8,663.384,298.92z"/>
	<path d="M407.617,330.592c-6.9-0.74-15.853-12.772-13.619-18.509c5.809,1.576,11.122,3.819,13.513,9.985
		c0.971,2.503,1.068,5.148,0.574,7.796C408.029,330.158,407.906,330.435,407.617,330.592z"/>
	<path d="M392.507,345.878c-6.683-0.771-14.846-9.629-14.045-17.766c1.841-0.681,7.639,1.63,10.34,4.329
		C392.519,336.155,393.486,340.701,392.507,345.878z"/>
	<path d="M408.48,310.357c-6.351,2.1-18.587-5.317-19.536-11.961c1.32-0.376,2.714-0.498,4.068-0.478
		c2.636,0.04,5.28,0.253,7.726,1.394c4.255,1.984,6.816,5.318,7.786,9.894c0.051,0.242,0.074,0.494,0.073,0.741
		C408.596,310.087,408.519,310.228,408.48,310.357z"/>
	<path d="M576.336,363.089c-6.78-5.164-8.534-15.792-5.121-22.801c3.424,2.464,6.282,5.271,7.56,9.379
		C580.283,354.514,579.362,358.925,576.336,363.089z"/>
	<path d="M602.313,175.93c1.508-0.265,3.018-0.503,4.549-0.441c3.517,0.141,6.92,0.691,9.845,2.891
		c3.016,2.269,4.696,5.318,5.347,8.985c0.033,0.184-0.028,0.385-0.043,0.555C615.817,190.207,603.692,182.886,602.313,175.93z"/>
	<path d="M595.742,180.827c1.119,0.375,1.861,1.272,2.655,2.043c2.338,2.271,4.43,4.769,5.25,7.999
		c1.096,4.323,0.329,8.376-2.258,12.045c-0.137,0.194-0.367,0.322-0.543,0.472C594.749,199.241,592.005,188.422,595.742,180.827z"/>
	<path d="M568.367,112.114c1.293-0.801,2.786-1.034,4.216-1.226c1.869-0.25,3.781-0.232,5.674-0.094
		c5.544,0.404,10.226,4.64,11.699,9.976C583.515,123.092,572.687,120.076,568.367,112.114z"/>
	<path d="M323.47,331.703c7.915-3.661,17.894-1.618,22.93,4.36c-0.627,0.826-1.61,1.114-2.488,1.497
		c-3.14,1.371-6.418,2.216-9.866,1.81c-3.106-0.366-5.804-1.731-7.981-3.989C325.047,334.324,323.907,333.311,323.47,331.703z"/>
	<path d="M320.475,372.372c2.671-8.992,11.915-14.273,18.777-13.504C337.541,368.745,329.961,374.973,320.475,372.372z"/>
	<path d="M619.558,218.498c7.681,4.464,11.113,13.957,8.857,21.819c-4.178-2.262-7.918-4.951-9.719-9.442
		C617.041,226.751,617.557,222.596,619.558,218.498z"/>
	<path d="M593.164,320.426c0.334-0.509,0.701-0.53,1.036-0.573c3.397-0.435,6.757-0.344,10.014,0.836
		c3.872,1.402,6.49,4.095,7.994,7.902c0.453,1.146,1.026,2.274,0.538,3.835c-3.558-0.2-7.101-0.511-10.389-2.219
		C598.109,328,595.066,324.702,593.164,320.426z"/>
	<path d="M607.324,189.998c0.947-0.436,1.744,0.237,2.554,0.465c4.791,1.35,8.743,3.864,10.836,8.597
		c1.181,2.672,1.168,5.526,0.821,8.38c-0.035,0.291-0.11,0.593-0.364,0.797C612.797,206.205,606.705,197.218,607.324,189.998z"/>
	<path d="M582.593,349.466c9.661,1.074,16.452,8.431,14.083,18.33c-4.061-1.243-7.413-3.426-10.016-6.752
		C584.032,357.686,582.733,353.844,582.593,349.466z"/>
	<path d="M562.788,117.847c3.737,1.945,6.935,4.313,8.965,7.975c1.787,3.225,1.743,6.683,1.048,10.159
		c-0.237,1.183-0.432,2.463-1.416,3.356C564.83,136.388,560.092,126.089,562.788,117.847z"/>
	<path d="M468.873,206.237c-4.273-1.553-8.007-3.713-10.397-7.698c-2.379-3.968-2.142-8.106-0.815-12.375
		C466.044,189.492,470.442,199.088,468.873,206.237z"/>
	<path d="M482.55,195.068c8.723-1.493,18.112,5.558,19.491,11.632C495.096,209.011,483.946,205.866,482.55,195.068z"/>
	<path d="M620.293,71.056c-4.676,0.751-9.151,0.626-13.279-1.746c-3.698-2.124-6.028-6.457-6.231-10.138
		C607.561,57.409,619.355,64.485,620.293,71.056z"/>
	<path d="M649.21,130.733c-4.358-1.015-8.235-2.88-11.011-6.458c-2.895-3.732-3.047-8.024-2.039-12.467
		C643.112,112.96,650.782,124.032,649.21,130.733z"/>
	<path d="M449.533,76.088c6.944,2.37,12.852,12.193,10.746,19.856c-4.428-1.682-8.382-4.061-10.668-8.321
		c-1.518-2.828-2.03-6.008-1.07-9.237C448.771,77.611,448.514,76.635,449.533,76.088z"/>
	<path d="M430,83.853c6.773-1.637,18.273,5.395,19.488,11.964c-1.196,0.396-2.448,0.259-3.668,0.278
		c-2.583,0.041-5.103-0.059-7.613-1.059c-4.095-1.631-6.493-4.61-7.811-8.633C430.132,85.595,429.523,84.786,430,83.853z"/>
	<path d="M617.547,93.814c5.528,5.86,6.008,16.591,1.763,22.616c-0.905-0.28-1.338-1.121-1.894-1.762
		c-2.848-3.28-4.851-6.963-4.651-11.45c0.153-3.44,1.499-6.449,3.899-8.953C616.865,94.054,617.055,93.799,617.547,93.814z"/>
	<path d="M587.034,70.237c-4.41-1.204-7.938-3.654-10.344-7.458c-2.492-3.938-2.146-8.201-0.863-12.525
		C584.073,53.639,588.596,63.048,587.034,70.237z"/>
	<path d="M327.096,302.577c-1.681-2.6-2.95-5.011-3.454-7.709c-0.487-2.605-0.565-5.26,0.376-7.811
		c1.028-2.789,2.901-4.945,5.265-6.698c0.237-0.176,0.518-0.303,1.131-0.128c1.43,3.472,2.721,7.118,2.034,11.167
		C331.744,295.55,330.326,299.348,327.096,302.577z"/>
	<path d="M267.868,341.84c0.184-0.204,0.432-0.24,0.682-0.234c4.266,0.107,8.298,0.975,11.727,3.709
		c2.35,1.874,3.71,4.361,4.298,7.277c0.24,1.187,0.849,2.364,0.302,3.613C277.62,356.533,268.66,349.368,267.868,341.84z"/>
	<path d="M282.699,322.75c-7.536,2.737-17.529-0.707-21.255-6.928c0.036-0.281,0.221-0.449,0.462-0.536
		c4.208-1.521,8.49-2.304,12.87-0.862c3.709,1.221,6.204,3.85,7.872,7.313C282.796,322.044,282.876,322.403,282.699,322.75z"/>
	<path d="M272.293,298.795c1.137-0.269,2.036,0.225,2.962,0.543c3.296,1.132,6.284,2.779,8.4,5.624
		c2.516,3.382,3.181,7.195,2.248,11.294c-0.022,0.095-0.069,0.188-0.123,0.269c-0.054,0.081-0.132,0.145-0.2,0.216
		C278.293,314.888,272.053,307.167,272.293,298.795z"/>
	<path d="M307.198,287.255c1.311-3.424,2.871-6.618,5.722-9.053c3.647-3.114,7.848-3.6,12.353-2.721
		c0.56,0.109,1.191,0.2,1.544,0.767C323.077,284.97,313.415,288.707,307.198,287.255z"/>
	<path d="M292.834,306.55c-5.953-5.527-7.138-15.824-3.064-22.28C298.211,290.209,298.609,301.583,292.834,306.55z"/>
	<path d="M290.756,335.448c-6.896,4.91-17.804,3.549-22.586-1.163c1.328-1.228,2.861-2.15,4.471-2.883
		c2.36-1.076,4.784-1.887,7.477-1.819c4.217,0.107,7.573,1.814,10.277,4.964C290.592,334.776,290.803,334.989,290.756,335.448z"/>
	<path d="M157.732,203.823c1.275-0.266,2.411,0.289,3.559,0.686c3.502,1.21,6.587,3.025,8.621,6.253
		c1.732,2.75,2.237,5.79,1.976,8.986c-0.02,0.24-0.11,0.486-0.217,0.705c-0.106,0.216-0.276,0.402-0.402,0.579
		C164.124,219.778,157.051,211.325,157.732,203.823z"/>
	<path d="M164.872,248.115c5.428-4.881,16.861-5.081,22.39-0.022C181.32,254.085,171.407,255.997,164.872,248.115z"/>
	<path d="M529.798,283.072c5.89-6.02,15.875-6.638,22.266-3.022c-0.4,1.012-1.328,1.551-2.073,2.225
		c-2.038,1.841-4.264,3.397-6.937,4.2c-4.397,1.322-8.417,0.516-12.086-2.179C530.543,283.983,530.003,283.749,529.798,283.072z"/>
	<path d="M507.878,386.178c-2.651-7.477,1.309-17.326,7.465-20.778c0.897,0.728,0.845,1.864,1.146,2.829
		c1.367,4.384,1.219,8.617-1.302,12.624c-1.606,2.553-3.975,4.131-6.598,5.419c-0.122,0.06-0.294,0.035-0.44,0.02
		C508.055,386.284,507.968,386.219,507.878,386.178z"/>
	<path d="M528.944,393.098c-6.841-4.353-10.121-13.216-7.71-21.096c3.321,1.678,6.169,3.837,7.957,7.055
		C532.046,384.194,531.686,387.891,528.944,393.098z"/>
	<path d="M169.313,232.405c-1.567,5.103-3.455,9.515-8.128,12.022c-2.627,1.41-5.456,1.809-8.393,1.468
		c-0.678-0.079-1.39-0.15-2.17-0.757c0.982-3.448,3.174-6.124,5.895-8.387C160.125,233.751,164.468,232.815,169.313,232.405z"/>
	<path d="M545.136,295.889c-1.303,9.154-9.053,15.549-15.588,15.756c0.258-4.874,1.453-9.321,5.156-12.741
		C537.308,296.498,542.608,295.012,545.136,295.889z"/>
	<path d="M506.089,263.075c-1.492-3.05-1.849-6.279-1.679-9.6c0.197-3.856,3.393-9.958,6.305-12.125
		C515.321,247.563,515.502,258.807,506.089,263.075z"/>
	<path d="M502.131,289.276c8.449,1.211,15.199,9.157,15.205,16.193c-4.424-0.354-8.495-1.568-11.657-4.726
		C502.581,297.65,501.645,293.718,502.131,289.276z"/>
	<path d="M176.211,223.61c-1.345-8.09,2.903-16.506,10.007-19.749C189.152,211.316,186.519,221.725,176.211,223.61z"/>
	<path d="M142.355,227.519c3.13-2.122,6.136-4.064,9.954-4.249c3.091-0.15,6.048,0.092,8.697,1.934
		c1.517,1.055,2.737,2.375,4.014,3.696C159.308,233.266,148.165,233.202,142.355,227.519z"/>
	<path d="M518.422,243.553c4.02,1.425,7.4,3.655,9.648,7.281c2.462,3.97,2.199,8.178,0.695,12.442
		C521.444,260.466,516.644,251.237,518.422,243.553z"/>
	<path d="M674.931,231.255c-1.093-0.826-1.327-2.142-1.872-3.289c-0.887-1.869-1.34-3.883-1.54-5.879
		c-0.317-3.163,0.671-6.086,2.532-8.68c0.907-1.264,2.113-2.235,3.324-3.181c0.44-0.344,0.918-0.826,1.599-0.534
		C682.365,216.674,680.741,226.797,674.931,231.255z"/>
	<path d="M569.628,270.373c-5.759,8.078-16.308,9.122-21.987,3.163C551.924,268.088,563.175,266.257,569.628,270.373z"/>
	<path d="M524.403,306.16c-3.532-3.949-4.807-8.522-4.204-13.723c0.329-2.84,3.269-7.211,5.696-8.278
		C530.116,288.798,530.184,300.616,524.403,306.16z"/>
	<path d="M512.794,335.052c-4.338,1.1-8.287,0.496-11.967-1.311c-3.912-1.921-6.146-5.239-6.764-9.59
		c-0.028-0.195-0.03-0.396-0.02-0.593c0.005-0.093,0.068-0.183,0.187-0.481c3.139,0.039,6.283,0.313,9.217,1.806
		C507.775,327.083,510.873,330.403,512.794,335.052z"/>
	<path d="M610.803,276.691c-0.561-7.776,5.819-16.229,12.879-17.743c0.117,2.406,0.214,4.782-0.208,7.13
		c-0.326,1.816-1.093,3.481-2.104,5.051c-2.072,3.218-5.084,4.928-8.737,5.672c-0.386,0.079-0.794,0.073-1.191,0.067
		C611.255,276.864,611.069,276.768,610.803,276.691z"/>
	<path d="M667.212,229.381c-10.343-3.398-13.878-11.406-10.77-19.071C662.501,210.762,669.6,223.232,667.212,229.381z"/>
	<path d="M593.932,281.401c-4.332,6.757-13.458,9.839-20.98,7.316c2.458-5.293,8.284-10,14.209-9.604
		C589.524,279.271,592.269,280.155,593.932,281.401z"/>
	<path d="M487.87,321.029c-1.351,0.408-2.46-0.202-3.583-0.51c-3.853-1.055-7.191-2.927-9.271-6.492
		c-1.667-2.857-2.034-5.956-1.469-9.209C481.244,306.288,487.683,313.457,487.87,321.029z"/>
	<path d="M348.725,226.439c-3.466-2.73-6.067-6.049-6.777-10.433c-0.63-3.895,0.625-7.39,3.237-10.37
		C350.197,208.658,353.155,219.873,348.725,226.439z"/>
	<path d="M558.423,60.313c4.718,4.517,5.555,15.212,0.984,21.273c-3.164-3.048-5.103-6.653-5.577-10.987
		C553.426,66.906,556.105,61.44,558.423,60.313z"/>
	<path d="M421.802,243.168c-7.178-1.133-13.753-8.446-13.818-16.003c3.762,0.337,7.111,1.468,9.937,4.015
		C421.496,234.401,422.5,238.439,421.802,243.168z"/>
	<path d="M385.278,211.571c-3.575-2.939-6.214-6.379-6.732-11.148c-0.371-3.418,0.809-6.351,2.731-9.066
		c0.168-0.237,0.366-0.479,0.685-0.547C387.106,194.247,389.551,205.472,385.278,211.571z"/>
	<path d="M441.28,217.298c-7.144-6.751-7.48-15.976-1.011-21.081C445.12,201.037,445.72,211.36,441.28,217.298z"/>
	<path d="M377.434,183.201c2.582,7.216-1.315,16.213-7.326,19.621C366.776,197.348,367.542,185.951,377.434,183.201z"/>
	<path d="M355.03,210.888c-0.842-1.026-0.963-2.324-1.168-3.545c-0.289-1.721-0.187-3.475-0.173-5.217
		c0.032-3.832,1.842-6.725,4.825-8.951c0.872-0.651,1.865-1.14,2.812-1.687c0.379-0.219,0.761-0.507,1.243-0.268
		C364.726,197.999,361.879,207.121,355.03,210.888z"/>
	<path d="M224.08,243.211c-5.59,6.273-16.59,6.566-20.72,3.13C208.876,238.625,218.566,237.701,224.08,243.211z"/>
	<path d="M338.757,104.037c-9.121-4.555-11.624-12.452-7.626-19.448C337.715,87.645,341.4,98.061,338.757,104.037z"/>
	<path d="M363.011,248.693c1.54,0.346,2.699,1.384,3.886,2.313c3.176,2.486,5.085,5.822,6.092,9.667
		c0.375,1.431,0.475,2.938,0.645,4.416c0.073,0.636,0.07,1.311-0.571,1.725C364.363,264.525,359.49,256.396,363.011,248.693z"/>
	<path d="M423.586,281.044c-3.718-3.798-6.372-7.924-5.78-13.431c0.325-3.03,1.775-5.503,3.812-7.658
		C426.585,262.525,427.888,276.489,423.586,281.044z"/>
	<path d="M261.691,254.447c8.129-0.7,15.577,4.883,17.549,11.425c-0.15,0.235-0.397,0.296-0.642,0.316
		c-4.267,0.36-8.399-0.002-11.991-2.623C263.567,261.348,262.189,258.194,261.691,254.447z"/>
	<path d="M499.445,98.175c3.07-2.224,6.393-3.363,10.183-3.574c3.308,0,6.321,1.228,8.788,3.684
		c0.678,0.675,1.517,1.304,1.581,2.391C514.693,104.329,504.104,103.6,499.445,98.175z"/>
	<path d="M311.753,177.228c-5.397-6.533-5.692-15.354,1.577-20.196C317.746,160.524,316.695,173.974,311.753,177.228z"/>
	<path d="M334.979,164.203c-1.073,7.878-6.655,13.534-14.09,15.113c-0.118-4.159,0.849-7.926,3.531-11.056
		C327.128,165.1,330.795,164.105,334.979,164.203z"/>
	<path d="M419.119,153.209c-10.311-1.003-14.543-8.804-13.017-15.089C411.854,138.114,419.433,145.943,419.119,153.209z"/>
	<path d="M522.742,97.858c7.028-1.562,15.315,2.235,18.146,8.716c-0.608,0.539-1.349,0.736-2.154,0.779
		c-1.992,0.108-4.001,0.27-5.974-0.006c-3.769-0.527-6.687-2.452-8.565-5.795C523.549,100.403,522.885,99.223,522.742,97.858z"/>
	<path d="M539.133,120.707c-2.323,8.821-10.144,12.94-17.566,9.78C524.457,123.677,531.658,119.879,539.133,120.707z"/>
	<path d="M437.544,127.533c2.893,5.694,0.925,14.792-5.306,19.508c-2.013-3.769-2.512-7.695-1.771-11.796
		C431.01,132.237,434.422,128.604,437.544,127.533z"/>
	<path d="M275.21,110.851c4.017,5.918,2.635,15.06-2.406,19.814C268.599,126.073,267.024,115.628,275.21,110.851z"/>
	<path d="M294.281,188.211c-5.495-5.315-3.961-17.18,2.446-19.565C300.418,173.48,299.577,183.937,294.281,188.211z"/>
	<path d="M207.539,335.592c-7.533,2.736-16.505-2.21-18.539-6.792C196.419,325.122,205.406,327.754,207.539,335.592z"/>
	<path d="M559.544,230.776c4.197-4.869,13.954-6.491,19.615-2.72C574.313,234.735,565.225,236.689,559.544,230.776z"/>
	<path d="M209.429,332.824c-5.402-3.953-7.314-12.466-4.457-19.43c3.203,2.086,5.564,4.772,6.727,8.343
		C213.025,325.806,212.01,329.474,209.429,332.824z"/>
	<path d="M266.976,367.144c-5.576-4.343-6.981-13.845-3.645-19.494c3.256,2.426,5.819,5.351,6.487,9.418
		C270.427,360.774,269.588,364.241,266.976,367.144z"/>
	<path d="M181.725,349.588c-0.188-0.407-0.117-0.718-0.012-0.984c1.494-3.793,3.533-7.207,7.365-9.029
		c3.042-1.446,6.234-1.428,9.428-0.324C196.733,345.322,189.115,350.495,181.725,349.588z"/>
	<path d="M231.852,367.85c-0.028-5.749,8.084-13.476,14.636-12.633C246.344,362.178,240.43,369.643,231.852,367.85z"/>
	<path d="M248.961,271.18c0.409,5.663-2.658,14.139-13.183,14.432c-0.855-0.765-0.3-1.697-0.091-2.466
		c1.025-3.762,3.182-6.808,6.276-9.151c1.873-1.418,4.025-2.326,6.29-2.948C248.496,270.981,248.747,270.994,248.961,271.18z"/>
	<path d="M255.168,273.456c4.362,6.861,3.265,15.711-4.225,19.167C247.226,288.935,250.086,275.96,255.168,273.456z"/>
	<path d="M179.454,275.613c3.945-6.098,12.845-8.739,19.254-6.255c-2.033,3.158-4.252,6.034-7.847,7.367
		C186.971,278.166,183.179,277.688,179.454,275.613z"/>
	<path d="M211.4,342.502c5.561,5.83,5.359,15.318,2.201,19.82c-3.074-2.452-5.16-5.565-5.797-9.359
		C207.139,349.005,208.383,345.457,211.4,342.502z"/>
	<path d="M204.149,343.712c1.358,7.35-1.49,14.053-8.13,17.841c-0.531-0.268-0.487-0.841-0.578-1.287
		c-0.845-4.14-1.03-8.212,1.474-11.939c1.528-2.274,3.672-3.73,6.228-4.62C203.463,343.595,203.816,343.494,204.149,343.712z"/>
	<path d="M248.871,137.8c7.003-0.176,13.939,5.062,15.588,11.762c-0.287,0.385-0.716,0.283-1.096,0.281
		c-4.398-0.02-8.5-0.854-11.699-4.22C249.822,143.684,248.508,140.136,248.871,137.8z"/>
	<path d="M230.677,301.683c0.872,2.058,2.049,3.973,2.116,6.286c0.032,1.095-0.004,2.192,0.053,3.285
		c0.147,2.838-1.005,5.118-2.969,7.057c-1.061,1.048-2.156,2.059-3.521,2.709C223.01,316.755,224.706,305.372,230.677,301.683z"/>
	<path d="M253.341,378.731c-5.175-3.997-7.038-13.435-3.587-19.554c3.065,2.19,5.463,4.94,6.199,8.572
		C256.746,371.662,256.386,375.583,253.341,378.731z"/>
	<path d="M281.076,209.439c5.915-4.528,15.348-5.003,19.766,2.39C295.823,215.315,286.228,214.81,281.076,209.439z"/>
	<path d="M286.833,201.707c1.719-7.385,8.323-13.021,16.469-10.361C302.376,197.057,293.709,203.215,286.833,201.707z"/>
	<path d="M236.142,154.12c4.837-4.382,14.077-4.884,19.635-0.911C251.688,158.88,241.421,160.879,236.142,154.12z"/>
	<path d="M538.419,195.698c7.691,5.182,9.535,12.973,4.711,18.911C537.402,210.794,535.638,201.556,538.419,195.698z"/>
	<path d="M567.303,190.701c-6.484,2.849-16.516-2.173-17.929-6.957c4.345-1.464,8.648-2.131,12.89,0.327
		c2.326,1.348,3.898,3.362,5.017,5.763C567.409,190.11,567.444,190.408,567.303,190.701z"/>
	<path d="M584.668,34.858c4.425,4.744,5.708,12.523,1.654,18.886c-2.783-2.451-4.692-5.383-5.232-8.99
		C580.513,40.901,581.764,37.561,584.668,34.858z"/>
	<path d="M593.914,69.153c-6.836-5.88-6.99-14.355-1.495-18.748C597.256,56.093,597.382,63.948,593.914,69.153z"/>
	<path d="M473.966,186.252c4.249,3.792,5.934,12.769,1.698,18.803c-2.996-2.7-5.01-5.938-5.281-9.916
		C470.151,191.729,471.372,188.663,473.966,186.252z"/>
	<path d="M625.966,118.104c-0.887-0.944-1.025-2.22-1.231-3.386c-0.337-1.909-0.382-3.837-0.155-5.802
		c0.435-3.768,4.047-7.487,7.217-8.406c0.133-0.039,0.288-0.005,0.426-0.005C634.739,106.951,630.862,115.412,625.966,118.104z"/>
	<path d="M468.455,98.443c-6.512-5.305-6.834-14.378-1.464-18.593C471.811,84.858,472.19,94.12,468.455,98.443z"/>
	<path d="M493.007,85.557c-2.725-2.618-4.806-5.388-5.152-9.155c-0.346-3.774,0.41-7.167,3.448-9.763
		C495.641,70.478,496.784,79.608,493.007,85.557z"/>
	<path d="M466.575,170.776c4.036,4.392,5.766,11.942,1.764,18.728C462.073,185.043,460.951,175.611,466.575,170.776z"/>
	<path d="M663.53,232.407c-5.648,3.895-15.142,3.272-18.057-4.216C650.945,225.241,660.059,227.4,663.53,232.407z"/>
	<path d="M522.219,240.701c0.67-0.987,1.735-0.892,2.591-1.192c3.49-1.223,6.986-1.354,10.38,0.356
		c2.059,1.038,3.507,2.736,4.714,4.654c0.127,0.202,0.182,0.457,0.229,0.696c0.026,0.136-0.033,0.288-0.052,0.421
		C534.486,248.134,526.121,246.02,522.219,240.701z"/>
	<path d="M528.498,370.174c4.975-1.074,9.692-1.758,13.916,1.75c1.613,1.339,2.632,3.078,3.372,5.002
		c0.064,0.166-0.015,0.386-0.027,0.565C540.643,379.36,531.929,376.691,528.498,370.174z"/>
	<path d="M344.57,296.354c-7.739-3.846-9.86-10.935-6.35-17.087c3.679,2.48,5.995,5.862,6.952,10.173
		C345.679,291.724,345.329,295.427,344.57,296.354z"/>
	<path d="M336.666,294.604c5.896,3.193,8.94,12.048,6.651,16.978c-3.17-1.428-5.737-3.491-7.145-6.719
		C334.679,301.438,335.067,298.042,336.666,294.604z"/>
	<path d="M610.939,239.945c5.897,0.517,12.234,8.551,11.254,13.89C614.25,252.708,609.467,247.053,610.939,239.945z"/>
	<path d="M585.403,185.847c3.994,4.982,3.618,13.947-0.274,17.718C580.03,199.192,579.093,190.052,585.403,185.847z"/>
	<path d="M404.761,179.984c1.269,1.314,1.055,3.176,1.814,4.753c1.966-0.637,3.541-2.173,5.656-1.742
		c1.022,3.259-3.013,9.287-8.098,10.247C400.035,189.428,400.264,182.617,404.761,179.984z"/>
	<path d="M593.857,234.517c-2.85,5.102-10.659,7.889-16.972,6.131C579.467,233.87,587.409,230.569,593.857,234.517z"/>
	<path d="M447.302,167.299c-2.887,4.769-11.486,7.532-16.744,4.955C433.963,165.512,441.658,163.163,447.302,167.299z"/>
	<path d="M542.424,65.465c-2.274,8.398-9.35,11.37-15.054,8.857C529.636,68.011,537.557,64.251,542.424,65.465z"/>
	<path d="M529.872,87.846c-4.183,5.474-13.805,6.105-17.524,0.582C516.746,84.44,525.173,84.167,529.872,87.846z"/>
	<path d="M508.87,73.93c-3.613-0.892-6.913-2.032-9.145-5.016c-1.913-2.558-2.651-5.467-1.961-8.657
		C502.679,60.376,509.075,67.233,508.87,73.93z"/>
	<path d="M476.002,150.726c4.43-5.101,12.612-6.495,17.356-0.596C490.137,154.105,479.427,154.254,476.002,150.726z"/>
	<path d="M294.51,165.577c-6.218,0.932-14.091-6.977-13.272-10.818c1.031-0.371,1.981,0.375,3.016,0.314
		c1.73-0.102,3.326,0.498,4.842,1.268c3.103,1.577,4.834,4.198,5.559,7.532C294.768,164.393,294.817,164.962,294.51,165.577z"/>
	<path d="M474.113,126.037c-5.213,1.165-12.451-2.147-15.101-8.422c3.926-1.086,7.589-0.637,11.03,1.424
		C472.389,120.446,474.421,124.075,474.113,126.037z"/>
	<path d="M437.109,110.539c-7.297-2.333-11.33-8.281-8.629-15.141C433.584,96.766,438.476,104.666,437.109,110.539z"/>
	<path d="M628.756,143.103c1.811,4.127-0.502,12.54-6.769,15.999c-1.322-3.204-1.576-6.435-0.358-9.631
		C622.883,146.178,625.382,144.123,628.756,143.103z"/>
	<path d="M426.144,110.439c7.437,0.783,12.381,6.22,13.263,11.075c-0.915,0.438-1.862,0.071-2.758-0.012
		c-3.684-0.344-7.018-1.476-9.12-4.813C426.342,114.805,425.418,112.375,426.144,110.439z"/>
	<path d="M487.375,117.141c-4.212,3.246-13.12,2.754-17.08-1.27c1.084-2.06,6.075-3.911,9.455-3.507
		C483.5,112.812,486.78,114.867,487.375,117.141z"/>
	<path d="M444.937,118.618c-2.705-2.758-4.749-5.748-4.869-9.717c-0.095-3.133,1.516-6.548,3.486-7.636
		C447.601,104.408,448.433,113.797,444.937,118.618z"/>
	<path d="M472.845,145.118c0.361-1.96,0.449-3.8,1.004-5.578c1.09-3.491,3.392-5.835,6.791-6.977
		c1.314-0.442,2.816-0.324,4.265-0.464C484.338,138.093,479.718,143.867,472.845,145.118z"/>
	<path d="M477.007,66.558c6.15,4.132,7.781,12.173,3.037,17.141C475.484,79.844,473.917,72.025,477.007,66.558z"/>
	<path d="M352.602,139.46c-4.362-3.994-5.664-12.105-2.302-17.224C355.479,125.547,357.971,133.992,352.602,139.46z"/>
	<path d="M441.026,176.703c4.136-4.131,13.32-5.36,17.31,1.249C455.148,181.189,445.046,181.117,441.026,176.703z"/>
	<path d="M343.864,120.605c1.364,7.038-3.859,14.124-10.371,13.338C332.373,129.996,337.113,122.074,343.864,120.605z"/>
	<path d="M261.218,173.936c-4.141,5.511-12.872,6.672-17.265,1.161C246.919,171.275,257.168,170.541,261.218,173.936z"/>
	<path d="M429.798,178.692c8.82-2.278,14.628,2.608,15.36,8.155c-0.264,0.391-0.652,0.581-1.184,0.661
		c-1.705-0.697-3.638-0.393-5.46-1.031C434.547,185.085,431.841,182.429,429.798,178.692z"/>
	<path d="M481.743,207.509c5.996-1.492,12.838,1.142,16.057,6.838c-2.491,1.023-5.054,1.457-7.621,0.882
		C485.438,214.167,483.226,212.035,481.743,207.509z"/>
	<path d="M285.538,141.346c0.32-1.956,0.88-3.676,1.655-5.325c2.165-4.605,6.291-6.695,11.371-6.056
		c0.138,0.017,0.265,0.12,0.391,0.181C298.685,134.074,293.707,140.855,285.538,141.346z"/>
	<path d="M257.026,126.989c7.081,0.997,11.986,8.506,11.504,12.706c-3.41-0.038-6.421-1.174-8.804-3.564
		C257.267,133.664,256.504,130.54,257.026,126.989z"/>
	<path d="M249.539,214.8c-0.258-5.913,5.539-12.402,11.26-13.207c0.077,0.101,0.25,0.224,0.239,0.328
		c-0.452,4.432-1.263,8.728-5.487,11.288C253.769,214.288,251.784,214.892,249.539,214.8z"/>
	<path d="M493.553,167.733c5.682,0.572,11.517,8.425,10.502,13.371C495.314,179.976,491.828,172.944,493.553,167.733z"/>
	<path d="M576.514,42.179c-4.037,3.11-13.026,3.041-17.36-1.335C564.293,36.071,572.902,36.109,576.514,42.179z"/>
	<path d="M311.145,138.091c6.228-1.384,13.8,2.648,13.478,10.099C320.245,149.703,312.215,143.74,311.145,138.091z"/>
	<path d="M579.869,88.71c-5.486,2.75-14.028-0.033-16.458-4.145c0.747-0.782,1.806-0.961,2.758-1.296
		c3.994-1.402,7.797-1.263,11.235,1.534c0.942,0.766,1.568,1.794,2.351,2.691C580.033,87.814,580.062,88.218,579.869,88.71z"/>
	<path d="M513.326,187.752c-6.444-3.557-8.682-11.744-4.123-16.706C513.719,174.059,515.98,181.989,513.326,187.752z"/>
	<path d="M563.326,51.468c-5.758,0.668-13.162-2.975-15.147-8.593c0.253-0.416,0.69-0.353,1.068-0.364
		c1.292-0.037,2.586-0.022,3.879-0.056c4.674-0.122,8.462,2.645,9.853,7.087C563.164,50.132,563.635,50.683,563.326,51.468z"/>
	<path d="M348.401,232.93c3.651,0.463,7.04,1.365,9.597,4.29c1.805,2.064,2.93,6.038,2.245,8.163
		C355.6,246.03,347.754,237.949,348.401,232.93z"/>
	<path d="M309.08,203.457c5.5,1.817,9.979,8.852,9.294,14.643c-2.868-0.414-5.244-1.837-7.131-3.837
		C308.375,211.224,307.558,207.583,309.08,203.457z"/>
	<path d="M370.239,231.136c-4.426,3.402-14.313,2.013-16.974-2.08C358.865,224.516,367.038,225.126,370.239,231.136z"/>
	<path d="M462.142,224.273c-4.279,2.773-13.503,1.286-16.802-3.791C449.741,217.487,457.999,216.638,462.142,224.273z"/>
	<path d="M330.658,218.464c-1.512-7.211,3.016-13.872,9.863-13.796C341.33,209.541,336.78,217.109,330.658,218.464z"/>
	<path d="M450.058,237.568c-6.676-2.131-10.592-9.081-9.879-13.736c4.016,0.656,7.303,2.414,9.419,5.974
		C451.213,232.525,451.364,235.91,450.058,237.568z"/>
	<path d="M275.211,247.74c5.625,1.38,10.346,9.367,9.053,14.462C278.169,262.28,272.355,252.993,275.211,247.74z"/>
	<path d="M224.629,237.368c1.677-4.832,10.367-8.537,15.69-6.633C239.255,235.664,232.123,241.193,224.629,237.368z"/>
	<path d="M476.328,106.096c-1.274,4.482-12.17,7.795-16.6,5.12C462.264,105.715,469.479,102.034,476.328,106.096z"/>
	<path d="M386.859,234.195c3.388-5.834,9.826-8.511,15.69-7.311c0.185,1.836-2.521,5.502-5.555,7.195
		C393.727,235.9,390.363,235.567,386.859,234.195z"/>
	<path d="M318.349,255.352c-5.547-0.566-12.321-6.876-9.227-14.349C313.978,241.782,319.507,250.381,318.349,255.352z"/>
	<path d="M353.761,223.677c0.623-3.816,1.933-7.108,4.927-9.445c2.485-1.94,5.43-2.095,8.482-1.766
		C365.861,218.666,360.05,223.383,353.761,223.677z"/>
	<path d="M500.081,133.831c-2.93,5.773-9.308,8.82-15.69,7.57C487.003,134.478,492.58,130.907,500.081,133.831z"/>
	<path d="M598.334,143.277c6.467,2.514,10.085,9.057,9.372,14.452c-1.821,0.452-5.893-1.965-8.043-4.804
		C597.445,149.996,597.807,146.753,598.334,143.277z"/>
	<path d="M618.542,85.066c4.124-3.453,13.47-3.109,17.098,0.857C632.484,90.992,621.566,90.497,618.542,85.066z"/>
	<path d="M374.715,148.38c-3.533-0.358-6.889-1.135-9.576-3.707c-1.728-1.653-3.149-5.386-2.695-8.213
		C367.527,135.981,375.674,143.728,374.715,148.38z"/>
	<path d="M494.075,221.964c-1.59,1.528-3.48,2.309-5.398,2.951c-2.683,0.898-5.371,0.728-7.931-0.521
		c-1.621-0.791-2.961-1.947-4.063-3.387C481.331,217.281,490.02,217.845,494.075,221.964z"/>
	<path d="M346.16,86.64c4.066,6.004,2.484,13.866-1.021,17.107C339.805,97.861,340.947,89.259,346.16,86.64z"/>
	<path d="M488.454,104.301c-4.247,1.484-9.858,1.528-13.453-2.141c-0.971-0.992-2.174-3.232-2.39-4.535
		C476.584,95.578,485.853,98.488,488.454,104.301z"/>
	<path d="M274.145,223.457c4.064,7.077,1.899,14.682-4.005,16.729C267.749,235.097,268.984,227.341,274.145,223.457z"/>
	<path d="M208.974,256.101c4.815-4.204,13.353-3.859,17.307-0.663C221.729,260.781,213.178,261.583,208.974,256.101z"/>
	<path d="M237.697,200.859c2.99-3.774,13.849-4.261,17.237-0.773C251.084,205.172,242.241,206.443,237.697,200.859z"/>
	<path d="M404.86,221.148c-6.006,3.503-13.859,2.339-16.71-4.363C392.918,214.316,401.531,216.014,404.86,221.148z"/>
	<path d="M630.746,122.905c6.426,1.66,12.04,8.142,11.009,12.696c-6.078-0.388-12.259-4.181-11.432-11.973
		C630.349,123.377,630.397,123.133,630.746,122.905z"/>
	<path d="M369.715,159.603c-4.094,6.738-12.527,7.664-16.797,3.422C356.892,158.121,365.421,156.875,369.715,159.603z"/>
	<path d="M379.359,265.79c-5.607-4.587-6.45-12.69-1.563-16.917C381.942,251.751,383.032,261.678,379.359,265.79z"/>
	<path d="M249.944,220.384c1.994-4.83,10.772-8.22,16.041-6.274C263.008,221.197,255.638,223.901,249.944,220.384z"/>
	<path d="M377.763,100.11c3.391,3.434,3.295,13.649-0.783,17.174C371.74,111.437,372.406,103.456,377.763,100.11z"/>
	<path d="M372.353,251.567c-6.424-6.047-5.825-13.199-1.362-17.166C375.648,238.568,375.332,248.712,372.353,251.567z"/>
	<path d="M258.878,195.55c-7.869,0.781-13.767-4.159-13.308-10.201C249.804,183.686,259.272,190.893,258.878,195.55z"/>
	<path d="M142.654,199.076c2.261,0.185,4.307,0.778,6.232,1.699c3.033,1.451,4.857,3.902,5.43,7.208
		c0.196,1.129,0.711,2.315,0.018,3.461C148.316,210.83,142.755,204.743,142.654,199.076z"/>
	<path d="M138.745,215.936c5.974-4.876,13.796-4.327,17.173,1.28C151.701,220.277,143.617,220.366,138.745,215.936z"/>
	<path d="M185.676,226.873c0.82-7.611,6.419-12.383,13.217-10.771C197.587,221.819,192.09,226.614,185.676,226.873z"/>
	<path d="M211.417,228.569c-1.796,6.6-7.529,10.605-13.06,10.621C198.474,233.625,202.996,226.792,211.417,228.569z"/>
	<path d="M343.131,322.888c3.557-3.036,13.797-1.721,16.662,2.927C354.462,329.49,346.783,329.33,343.131,322.888z"/>
	<path d="M188.851,251.329c0.7,6.991-4.638,12.828-11.163,11.978C177.596,257.559,183.985,251.052,188.851,251.329z"/>
	<path d="M355.97,189.433c-1.125,5.714-7.825,10.822-13.299,10.203C343.801,192.458,348.877,187.905,355.97,189.433z"/>
	<path d="M525.185,140.645c-2.506,7.17-9.945,9.971-15.036,6.916C511.139,143.916,517.949,139.053,525.185,140.645z"/>
	<path d="M494.207,159.281c2.862-3.391,12.411-2.684,16.408,1.147C507.895,164.091,498.069,165.837,494.207,159.281z"/>
	<path d="M591.159,270.821c-2.556,5.119-11.004,7.352-15.056,5.263C579.221,269.627,585.669,267.768,591.159,270.821z"/>
	<path d="M410.416,134.656c-5.636,0.195-11.741-5.161-10.188-11.657C405.057,123.124,410.734,129.526,410.416,134.656z"/>
	<path d="M507.282,130.588c2.739-5.79,9.33-8.578,13.799-7.569C519.37,129.658,513.181,133.288,507.282,130.588z"/>
	<path d="M411.472,260.003c3.625,3.648,4.217,10.669,1.226,15.33c-2.466-2.412-4.262-5.074-4.391-8.595
		C408.216,264.225,409.779,260.955,411.472,260.003z"/>
	<path d="M494.972,184.355c4.675-1.281,11.632,2.368,13.283,7.395c-0.064,0.074-0.125,0.205-0.196,0.211
		c-3.23,0.277-6.486,0.579-9.319-1.489C496.667,188.958,495.314,186.962,494.972,184.355z"/>
	<path d="M562.065,195.749c7.11-2.486,12.717-0.175,14.227,5.219C572.987,203.403,564.543,200.356,562.065,195.749z"/>
	<path d="M604.52,255.852c4.015-3.012,11.825-2.546,14.983,1.092C615.874,260.711,607.839,261.303,604.52,255.852z"/>
	<path d="M217.478,277.515c4.212-2.788,12.159-2.051,14.314,4.148C227.979,283.85,220.012,281.941,217.478,277.515z"/>
	<path d="M501.809,81.195c2.362,4.041,0.168,11.861-3.783,14.15c-1.56-2.749-1.982-5.634-1.318-8.69
		C497.228,84.258,499.463,81.874,501.809,81.195z"/>
	<path d="M607.791,113.846c-3.301,3.785-9.991,4.924-14.191,2.349C596.317,111.758,603.21,109.434,607.791,113.846z"/>
	<path d="M331.948,135.458c2.772,5.046,1.436,11.788-4.293,13.672C325.741,145.11,327.569,137.848,331.948,135.458z"/>
	<path d="M563.795,80.488c0.481-4.884,5.626-9.834,11.661-7.972C575.268,76.56,568.719,81.323,563.795,80.488z"/>
	<path d="M238.22,381.205c-2.195-2.276,1.006-11.546,5.507-12.849C246.7,372.9,243.35,379.935,238.22,381.205z"/>
	<path d="M457.307,208.407c-0.536,4.21-6.326,8.474-11.627,8.039C446.037,211.59,450.814,206.643,457.307,208.407z"/>
	<path d="M579.367,150.109c3.799,0.253,8.808,6.171,8.149,11.906c-2.925-0.922-5.565-2.123-7.232-4.796
		C578.898,154.995,578.828,152.586,579.367,150.109z"/>
	<path d="M405.193,230.203c2.517,7.396,0.166,12.176-4.629,13.585C398.548,239.546,400.959,232.556,405.193,230.203z"/>
	<path d="M517.856,82.221c-4.785,2.361-11.617,0.697-13.273-5.235C509.77,75.753,515.305,77.46,517.856,82.221z"/>
	<path d="M518.328,77.428c5.578-1.218,10.163,0.526,13.189,5.14C527.429,84.869,519.571,83.637,518.328,77.428z"/>
	<path d="M512.806,155.822c-5.503,1.528-10.901-0.722-11.878-6.557C504.378,148.021,511.615,151.436,512.806,155.822z"/>
	<path d="M462.604,102.039c-4.703,4.097-10.973,3.294-13.575-0.648C451.093,98.85,459.103,98.469,462.604,102.039z"/>
	<path d="M315.429,202.761c-5.927-1.545-9.131-6.897-6.94-11.45C313.698,193.191,316.49,199.521,315.429,202.761z"/>
	<path d="M224.763,230.876c-1.048,2.652-2.792,4.463-5.322,5.516c-2.473,1.029-4.849,0.802-7.18-0.533
		C214.679,231.721,220.915,229.178,224.763,230.876z"/>
	<path d="M613.355,123.019c4.823-1.377,10.999,2.541,12.006,5.974c-1.274,0.884-5.581,0.819-7.569-0.25
		C615.525,127.522,613.902,125.738,613.355,123.019z"/>
	<path d="M584.551,78.618c2.551-2.713,10.452-2.588,13.453,0.691C594.248,82.948,587.412,83.225,584.551,78.618z"/>
	<path d="M331.559,150.07c2.294-3.549,9.01-5.126,13.261-2.965c-1.364,2.187-3.223,3.845-5.636,4.439
		C336.573,152.186,333.876,152.065,331.559,150.07z"/>
	<path d="M451.52,228.097c4.307-0.166,9.386,2.974,10.743,7.458c-0.197,0.442-0.612,0.821-1.023,0.709
		c-1.853-0.502-3.85-0.273-5.618-1.241C453.016,233.596,451.166,230.621,451.52,228.097z"/>
	<path d="M466.381,214.432c2.368-2.379,10.489-2.73,13.377,0.742C476.153,218.875,469.236,219.068,466.381,214.432z"/>
	<path d="M262.083,249.31c-1.937-3.44-0.975-10.093,2.805-12.929C268.03,239.841,267.541,246.943,262.083,249.31z"/>
	<path d="M604.932,142.605c-5.995-1.411-9.013-6.61-6.881-11.188C602.435,132.907,605.637,138.091,604.932,142.605z"/>
	<path d="M199.167,324.129c-3.75,1.422-9.697-1.781-11.17-6.276c1.839-1.521,3.8-0.501,5.593-0.024
		C196.706,318.659,198.384,320.981,199.167,324.129z"/>
	<path d="M549.943,369.812c1.567-4.153,7.091-7.112,11.51-6.127c-1.071,3.213-2.993,5.657-6.281,6.605
		C553.485,370.777,551.588,370.964,549.943,369.812z"/>
	<path d="M553.812,229.841c-0.934,5.566-5.175,9.012-10.463,7.578C543.85,233.238,550.258,228.963,553.812,229.841z"/>
	<path d="M395.148,175.283c-1.22-6.194,2.986-10.954,7.223-10.673C403.141,168.692,399.397,174.383,395.148,175.283z"/>
	<path d="M510.925,285.531c-5.232-0.396-9.77-3.849-8.758-9.271C505.998,275.824,511.575,281.691,510.925,285.531z"/>
	<path d="M604.584,223.633c-2.984,2.465-9.957,1.741-12.858-1.718C596.071,218.323,602.581,219.415,604.584,223.633z"/>
	<path d="M592.536,217.377c0.049-5.366,5.258-9.509,10.033-8.01C602.007,213.292,596.869,217.698,592.536,217.377z"/>
	<path d="M541.838,223.094c3.506-2.673,11.163-0.689,12.796,2.244C550.677,228.607,544.128,227.497,541.838,223.094z"/>
	<path d="M550.288,355.313c4.72-1.471,10.28,0.354,12.619,4.051c-2.813,1.183-5.585,1.55-8.46,0.425
		C552.343,358.966,551.014,357.45,550.288,355.313z"/>
	<path d="M515.524,285.773c-3.657-4.302-3.276-10.364,0.907-12.913C518.831,275.109,518.788,283.596,515.524,285.773z"/>
	<path d="M536.746,256.032c4.084-2.159,10.625-0.567,12.787,2.333C545.599,261.55,539.028,261.074,536.746,256.032z"/>
	<path d="M538.152,270.373c1.551-4.598,6.771-8.258,10.418-7.304C547.968,268.544,542.876,272.251,538.152,270.373z"/>
	<path d="M656.268,334.515c4.498-2.899,10.604-2.022,12.676,2.62C664.865,339.532,657.832,337.514,656.268,334.515z"/>
	<path d="M636.953,296.446c-0.049,4.52-4.512,9.114-8.47,9.392C627.654,301.799,631.097,295.806,636.953,296.446z"/>
	<path d="M652.673,336.913c4.632,1.05,8.542,5.664,6.376,10.824C655.074,346.927,651.281,340.683,652.673,336.913z"/>
	<path d="M628.488,310.467c2.658-3.723,9.987-4.48,12.762-0.307C639.107,312.747,631.668,313.286,628.488,310.467z"/>
	<path d="M277.425,202.863c0.098-5.727,4.103-9.349,8.11-8.354C285.731,198.289,280.661,203.166,277.425,202.863z"/>
	<path d="M252.828,160.494c2.17-3,7.912-5.233,11.554-3.344c-1.112,2.27-2.977,3.675-5.27,4.414
		C256.944,162.263,254.825,161.87,252.828,160.494z"/>
	<path d="M298.813,157.72c1.035-3.159,7.037-6.403,11.284-2.924C309.016,157.721,303.607,159.153,298.813,157.72z"/>
	<path d="M605.179,52.612c-2.446-3.332-1.726-9.107,2.35-10.513C609.653,43.875,608.01,51.107,605.179,52.612z"/>
	<path d="M601.259,51.765c-2.467-0.634-4.373-1.845-5.579-3.95c-0.93-1.624-1.287-3.381-0.396-5.188
		C598.668,43.476,601.771,47.773,601.259,51.765z"/>
	<path d="M483.016,187.439c-4.641-0.612-7.606-5.634-5.894-8.839C480.44,178.923,483.99,184.446,483.016,187.439z"/>
	<path d="M649.474,99.079c1.021,2.926-2.345,7.518-6.283,8.568C642.104,104.433,644.647,99.066,649.474,99.079z"/>
	<path d="M489.261,177.885c2.112,1.68,0.755,9.012-2.268,10.431C484.522,185.102,485.662,179.722,489.261,177.885z"/>
	<path d="M486.503,83.767c1.631,3.236,0.405,9.167-2.561,10.406C481.34,90.926,482.602,85.631,486.503,83.767z"/>
	<path d="M480.05,93.375c-4.435-0.879-7.335-4.35-5.985-8.885C476.74,84.593,480.655,89.312,480.05,93.375z"/>
	<path d="M639.838,105.18c-3.657-2.38-4.549-7.974-1.77-10.602C640.798,96.179,641.873,102.373,639.838,105.18z"/>
	<path d="M405.872,161.175c0.853-3.003,2.596-4.951,5.48-5.858c1.325-0.416,2.809-0.173,3.517,0.603
		C413.176,159.567,409.496,161.795,405.872,161.175z"/>
	<path d="M495.588,104.117c-0.059,4.736-3.159,8.086-5.977,8.645C488.411,109.956,490.453,104.306,495.588,104.117z"/>
	<path d="M397.798,178.623c1.225-4.864,4.701-6.796,9.042-5.63C405.803,176.488,401.121,179.324,397.798,178.623z"/>
	<path d="M596.142,274.528c2.966-3.468,9.254-3.116,10.515-0.11C604.401,276.589,599.273,276.924,596.142,274.528z"/>
	<path d="M594.805,243.096c0.209-2.281,0.48-4.456,2.304-6.044c1.369-1.191,2.898-2.024,4.837-1.569
		C601.526,239.42,598.635,242.534,594.805,243.096z"/>
	<path d="M218.179,289.314c-3.46-2.315-4.172-5.386-3.463-9.91C219.02,280.932,220.636,286.56,218.179,289.314z"/>
	<path d="M605.378,246.738c-2.142,2.334-7.989,2.464-10.355,0.23C597.575,243.863,603.116,243.32,605.378,246.738z"/>
	<path d="M596.198,270.541c-0.431-3.964,3.02-8.338,6.933-7.437C603.363,266.353,599.159,270.819,596.198,270.541z"/>
	<path d="M703.145,250.42c-2.856,2.308-7.76,2.357-10.255,0.186C694.275,247.681,701.114,246.941,703.145,250.42z"/>
	<path d="M699.568,239.398c-0.127,3.391-4.04,7.396-6.834,7.08C692.462,241.533,696.082,238.292,699.568,239.398z"/>
	<path d="M415.998,256.007c-2.537-3.822-1.105-8.379,2.296-9.688C419.846,249.1,418.559,254.582,415.998,256.007z"/>
	<path d="M392.072,240.966c1.84,2.452,0.209,8.355-2.09,9.512C387.466,248.062,388.317,242.434,392.072,240.966z"/>
	<path d="M406.968,246.873c3.547,1.326,5.811,4.945,5.263,8.296C407.974,254.331,405.23,250.088,406.968,246.873z"/>
	<path d="M380.625,241.534c3.415,0.746,6.257,5.004,5.498,8.096C382.933,249.172,379.461,246.274,380.625,241.534z"/>
	<path d="M370.316,219.206c-0.311-2.34,0.996-3.854,2.474-5.181c1.331-1.195,2.985-1.386,4.7-1.043
		C377.5,215.987,373.49,219.464,370.316,219.206z"/>
	<path d="M548.68,51.409c3.424-0.056,7.161,2.63,7.833,5.56C553.227,58.573,548.491,55.281,548.68,51.409z"/>
	<path d="M379.438,224.042c-1.863,1.951-7.619,1.369-9.626-0.903C371.856,220.448,377.496,220.932,379.438,224.042z"/>
	<path d="M438.275,192.869c-4.02,1.031-8.18-2.133-7.735-5.409C433.434,186.748,437.733,189.753,438.275,192.869z"/>
	<path d="M563.893,154.647c2.638-0.201,5.506,3.124,5.795,5.854C566.562,161.317,563.415,158.199,563.893,154.647z"/>
	<path d="M571.037,57.08c-0.323,2.726-3.015,5.454-6.145,5.849C563.896,60.026,567.484,56.544,571.037,57.08z"/>
	<path d="M473.786,234.364c-1.897-3.713-0.969-7.343,2.01-8.198C477.145,228.632,476.251,232.411,473.786,234.364z"/>
	<path d="M572.905,161.02c-2.233-2.366-2.108-7.039,0.588-8.416C575.511,154.648,575.166,158.664,572.905,161.02z"/>
	<path d="M470.454,233.498c-3.442-0.317-5.52-3.453-4.528-6.836C468.652,227.163,471.069,230.812,470.454,233.498z"/>
	<path d="M447.964,155.119c3.013,2.33,3.144,6.783,0.983,8.318C446.729,162.043,446.209,157.92,447.964,155.119z"/>
	<path d="M460.59,136.327c-0.951-2.601,1.529-6.986,4.8-6.504C465.911,132.327,463.149,136.134,460.59,136.327z"/>
	<path d="M456.254,128.038c2.342,2.607,2.939,5.972,1.453,8.2C454.66,134.609,453.869,130.142,456.254,128.038z"/>
	<path d="M457.836,159.675c-2.921,0.232-6.224-2.331-6.479-4.951C454.586,153.899,458.157,156.568,457.836,159.675z"/>
	<path d="M600.463,103.365c3.556-1.237,7.464,1.327,7.193,3.839C605.483,108.303,601.023,105.941,600.463,103.365z"/>
	<path d="M452.928,193.298c-1.062,3.205-3.754,5.383-6.32,5.203C446.618,194.878,450.071,191.896,452.928,193.298z"/>
	<path d="M564.442,66.153c2.71-2.395,6.698-2.07,8.497,0.651c-0.914,1.128-2.448,0.606-3.487,1.347
		C567.796,67.457,565.822,67.743,564.442,66.153z"/>
	<path d="M454.781,202.601c-1.981,1.679-6.729,1.282-8.349-0.628C448.385,199.697,453.107,200.008,454.781,202.601z"/>
	<path d="M521.917,71.514c-2.072,2.958-6.626,3.082-7.996,0.836C515.474,70.269,519.666,69.794,521.917,71.514z"/>
	<path d="M601.952,100.338c1.328-3.22,5.966-4.39,8.152-2.53C608.35,100.334,605.715,101.107,601.952,100.338z"/>
	<path d="M524.021,68.846c-1.675,0.384-3.126-0.075-4.364-1.136c-1.193-1.022-1.993-2.286-1.749-3.967
		C520.432,63.425,523.327,65.846,524.021,68.846z"/>
	<path d="M502.276,136.321c3.085,0.633,5.358,3.366,4.772,5.635C504.12,141.822,501.391,139.221,502.276,136.321z"/>
	<path d="M497.349,144.068c2.043-1.697,5.98-1.614,7.676,0.102C503.572,146.342,498.816,146.499,497.349,144.068z"/>
	<path d="M436.906,467.217c-0.099-0.202-0.284-0.378-0.16-0.705c0.287,0.207-0.037,0.528,0.157,0.703L436.906,467.217z"/>
	<path d="M159.646,219.907c-0.076,0.009-0.151,0.017-0.227,0.027c0.064-0.008,0.129-0.017,0.199-0.028
		C159.624,219.903,159.646,219.907,159.646,219.907z"/>
</g>
</svg>
